<svg xmlns="http://www.w3.org/2000/svg" viewBox="0 0 1156.844 1188.192" >
  <g id="bamboo_welcome" data-name="bamboo welcome" transform="matrix(0.848, 0.53, -0.53, 0.848, 1163.294, -188.19)"  opacity="0.13">
    <g id="Group_1022" data-name="Group 1022" transform="translate(-974.954 411.457) rotate(8)">
      <path id="Path_1529" data-name="Path 1529" d="M727.453,41.63c0,.049-.017.09-.021.139.174.375.361.751.525,1.133C727.793,42.475,727.623,42.054,727.453,41.63Z" transform="translate(289.551 220.976)" fill="none"/>
      <path id="Path_1530" data-name="Path 1530" d="M724.5,40.5c1.5,1.793,3,3.677,4.462,5.634.056.073.108.139.167.215l-.014-.01a90.651,90.651,0,0,1,13.575,25.259,172.6,172.6,0,0,0-6.46-23.132A132.489,132.489,0,0,1,724.5,40.5Z" transform="translate(282.304 218.169)" fill="none"/>
      <path id="Path_1531" data-name="Path 1531" d="M656.52,33.22c1.713,2.061,3.8,4.636,6.329,7.8-1.494-2.485-2.822-4.883-4.01-7.2C658.748,33.8,657.921,33.62,656.52,33.22Z" transform="translate(114.018 200.158)" fill="none"/>
      <path id="Path_1532" data-name="Path 1532" d="M736.76,31.865c-.122.379-.243.754-.365,1.133.122-.341.26-.674.389-1.011Z" transform="translate(311.738 196.804)" fill="none"/>
      <path id="Path_1533" data-name="Path 1533" d="M751.19,100.053c-.01-.059-.035-.118-.045-.177l.007-.045c-.191.633-.386,1.262-.57,1.894l.011-.014C750.78,101.155,750.989,100.606,751.19,100.053Z" transform="translate(346.856 365.045)" fill="none"/>
      <path id="Path_1534" data-name="Path 1534" d="M657.882,143.3v-.01l-.007,0Z" transform="translate(117.372 472.62)" fill="none"/>
      <path id="Path_1535" data-name="Path 1535" d="M655.8,150.39c-.059.344-.1.685-.17,1.029v0c-.014.07-.021.132-.035.2a138.885,138.885,0,0,1,9.832,16.543c.1.139.195.275.289.417.261.209.49.4.667.556.146.3.285.608.424.914a5.216,5.216,0,0,1,.535-1.206q-6.011-18.324-13.008-36.627A39.038,39.038,0,0,1,655.8,150.39Z" transform="translate(108.597 445.205)" fill="none"/>
      <path id="Path_1536" data-name="Path 1536" d="M664.15,131.2c-.069.275-.132.553-.194.824.066-.25.146-.493.215-.737Z" transform="translate(132.422 442.688)" fill="none"/>
      <path id="Path_1537" data-name="Path 1537" d="M649.738,132.154c.229.219.466.427.7.653-.24-.257-.479-.507-.719-.758C649.724,132.085,649.731,132.12,649.738,132.154Z" transform="translate(97.171 444.799)" fill="none"/>
      <path id="Path_1538" data-name="Path 1538" d="M681.9,226.58c-.177-.57-.351-1.157-.528-1.752l-.028-.094c-.115-.386-.229-.765-.344-1.161l.014.014a113.132,113.132,0,0,1-4.588-31.688,98.592,98.592,0,0,1,11.392,26.618q-.412-10.322-.747-20.79c-1.561-.921-.181-3.107-.181-3.107l.09.035c-.7-22.614-1.071-45.718-1.053-69.042A114.8,114.8,0,0,1,665.539,148a139.118,139.118,0,0,0-1.811,38.351l-.6.427q4.415,12.939,8.713,26.8a91.257,91.257,0,0,1,10.082,13.067Z" transform="translate(130.373 428.868)" fill="none"/>
      <path id="Path_1539" data-name="Path 1539" d="M783.125,218.9c-3.225-2.8.327-5.627.327-5.627a.707.707,0,0,1,.149.017c.2-2.155.407-4.268.6-6.405a123.917,123.917,0,0,1-34.128-29.117q3.6,75.3,10.826,160.288l0-.08q.678,7.877,1.387,15.823H776.9C777.412,304.806,779.591,259.928,783.125,218.9Z" transform="translate(345.609 557.983)" fill="none"/>
      <path id="Path_1540" data-name="Path 1540" d="M764.841,199.9a5.445,5.445,0,0,1-2.506-4.9,7.157,7.157,0,0,1,1.745-3.854A242.739,242.739,0,0,0,753.306,160.2c-15.622,24.126-35.81,40.425-41.044,44.433a233.586,233.586,0,0,0-3.041,49.646l-1.074.709q7.637,62.63,19.229,133.833c1.188-37.93-.476-92.924-15.41-137.889-1.341-4.636-1.709-7.375-1.108-8.178a1.048,1.048,0,0,1,.848-.427c.792,0,1.884,0,8.938,14.822,10.836,22.76,24.345,64.934,31.341,140.169h9.043A1687.78,1687.78,0,0,0,764.841,199.9Z" transform="translate(241.814 514.473)" fill="none"/>
      <path id="Path_1541" data-name="Path 1541" d="M691.071,226.337c-.056.685-.1,1.383-.163,2.054l0,.028C690.96,227.731,691.015,227.039,691.071,226.337Z" transform="translate(199.131 678.194)" fill="none"/>
      <path id="Path_1542" data-name="Path 1542" d="M720.035,385.614c.26-4.563.6-7.774.6-7.813-.073,1.011-.146,1.995-.219,2.978,2.631-34.462,5.328-86.008,4.577-147.1-3.642-3.222-.118-6.923-.1-6.944-.313-18.757-.959-38.368-2.023-58.609-1.661-1.672-3.312-3.448-4.945-5.31a191.55,191.55,0,0,1-34.667,35.306,235.971,235.971,0,0,0-3.232,34.424,85.435,85.435,0,0,1,21.829-16.442,117.372,117.372,0,0,1-21.773,28.641c.07,1.939.139,3.027.139,3.027l-1.077.709q8.091,66.331,20.654,142.33h19.816C719.75,389.131,719.893,387.4,720.035,385.614Z" transform="translate(170.004 520.971)" fill="none"/>
      <path id="Path_1543" data-name="Path 1543" d="M705.758,177.065c-1.932,1.376-3.451,2.408-4.462,3.076-.844,6.1-1.3,11.382-1.547,15.319a4.044,4.044,0,0,1-.1,1.717c-.195,3.58-.195,5.675-.195,5.675l-.883.5c2.11,46.612,2.944,97.23,2.179,152.211h23.587C719.117,317.519,711.315,253.683,705.758,177.065Z" transform="translate(218.117 556.228)" fill="none"/>
      <path id="Path_1544" data-name="Path 1544" d="M741.321,107.855c-.028.08-.052.163-.083.24A142.244,142.244,0,0,1,735.931,83.1q.208,8.445.427,16.908a73.293,73.293,0,0,1,5.185,16.887C741.554,113.916,741.484,110.9,741.321,107.855Z" transform="translate(310.59 323.63)" fill="none"/>
      <path id="Path_1545" data-name="Path 1545" d="M735.779,77.314q.162-1.783.386-3.576c-.15.236-.3.48-.445.712C735.737,75.406,735.758,76.358,735.779,77.314Z" transform="translate(310.067 300.455)" fill="none"/>
      <path id="Path_1546" data-name="Path 1546" d="M735.764,17.207c.5-7.858,1.008-15.431,1.5-22.673a38.489,38.489,0,0,1-5.008,6.544A130.057,130.057,0,0,1,735.764,17.207Z" transform="translate(301.495 104.396)" fill="none"/>
      <path id="Path_1547" data-name="Path 1547" d="M731.595,58.022q.161-4.358.333-8.671Q731.2,50.68,730.354,52,731.006,54.894,731.595,58.022Z" transform="translate(296.784 240.089)" fill="none"/>
      <path id="Path_1548" data-name="Path 1548" d="M736.189,93.057q.5,18.022,1.046,35.994a215.027,215.027,0,0,0,3.521-30.3C739.8,97.638,738.2,95.7,736.189,93.057Z" transform="translate(311.228 348.277)" fill="none"/>
      <path id="Path_1549" data-name="Path 1549" d="M752.856,148.067a183.607,183.607,0,0,1-15.486-18.44c.056,1.515.108,3.027.167,4.539a115.845,115.845,0,0,1,14.878,29.808Q752.613,156.061,752.856,148.067Z" transform="translate(314.152 438.801)" fill="none"/>
      <path id="Path_1550" data-name="Path 1550" d="M749.766,171.167l-.584-.514s.254-1.175.625-3.295q.094-7.71.226-15.542c-1.818-1.14-4.525-2.919-7.827-5.349-1.359,1.991-2.742,3.913-4.125,5.738q.652,16.1,1.314,31.73a91.324,91.324,0,0,1,10.3-5.773Q749.728,174.681,749.766,171.167Z" transform="translate(315.914 480.489)" fill="none"/>
      <path id="Path_1551" data-name="Path 1551" d="M745.089,157.91a156.493,156.493,0,0,1-7.448-21.019q.313,8.138.625,16.192c1.693,2,3.364,4.129,4.994,6.367C743.883,158.911,744.494,158.4,745.089,157.91Z" transform="translate(314.822 456.782)" fill="none"/>
      <path id="Path_1552" data-name="Path 1552" d="M748.42,157.176a117.593,117.593,0,0,1-9.842,10.009c3.587,83.989,7.219,155.839,9.665,201.874,1.23-7.138,2.534-13.686,3.882-19.726C749.915,301.665,747.847,234.652,748.42,157.176Z" transform="translate(317.142 506.995)" fill="none"/>
      <path id="Path_1553" data-name="Path 1553" d="M744.624,153.223c.01-.57.021-1.136.031-1.706-1.123-2.054-2.342-4.389-3.6-7-.257.427-.508.858-.765,1.282Q742.553,149.333,744.624,153.223Z" transform="translate(321.38 475.669)" fill="none"/>
      <path id="Path_1554" data-name="Path 1554" d="M704.355,132.962c.1-.389.219-.778.323-1.164l-.045-.129C704.543,132.1,704.445,132.534,704.355,132.962Z" transform="translate(232.427 443.856)" fill="none"/>
      <path id="Path_1555" data-name="Path 1555" d="M743.656,120.344a6.816,6.816,0,0,1,1.23-5.018c-.108-.487-.222-.97-.33-1.453-.16-.4-.33-.827-.525-1.293a226.745,226.745,0,0,1-39.765-25c-1.957,45.465-2.162,100.417,1.1,165.73a100.855,100.855,0,0,1,3.069-13.092l.014-.125c-.042-.236-.073-.48-.107-.719l-.028-.215c-3.552-24,12.98-49.312,12.98-49.312a115.516,115.516,0,0,1-5.491,34.729c11.236-17.87,28.867-29.485,28.867-29.485-12.056,28.564-35.595,48.4-37.093,49.642-.9,4.862-1.515,9.686-1.922,14.319.056,1.032.111,2.071.167,3.11a88.891,88.891,0,0,1,19.323-32.2c-3.409,20.856-12.605,37.423-18.517,46.341.024.368.052.751.073,1.123a89.97,89.97,0,0,1,42.129-34.58,116.429,116.429,0,0,1-22.784,24.341c9.147,8.671,25.985,27.24,29.481,49.176.149.3.278.58.372.8.014.427.01.855,0,1.293a138.549,138.549,0,0,1,8.584,14.228c.573-.424,1.126-.824,1.661-1.206a176.408,176.408,0,0,1-2.593-20.265c-.2-1.095-.368-2.259-.5-3.468a30.949,30.949,0,0,1,.142-9.505,140.188,140.188,0,0,1,1.119-16.1,84.653,84.653,0,0,1,8.324,14.388A1414.154,1414.154,0,0,0,746.77,123.938,5.464,5.464,0,0,1,743.656,120.344Z" transform="translate(228.69 334.724)" fill="none"/>
      <path id="Path_1556" data-name="Path 1556" d="M721.42,159.918c.118.247.24.5.358.751-.073-.323-.149-.639-.222-.97C721.507,159.772,721.465,159.845,721.42,159.918Z" transform="translate(274.669 513.241)" fill="none"/>
      <path id="Path_1557" data-name="Path 1557" d="M716.177,151.724q-.209,1.83-.462,3.632a79.6,79.6,0,0,1,13.061,13.432c-1.491-2.909-3.083-5.821-4.775-8.7.01.094.031.195.038.289C724.038,160.378,720.81,157.25,716.177,151.724Z" transform="translate(260.548 493.5)" fill="none"/>
      <path id="Path_1558" data-name="Path 1558" d="M742.879,203.284c.01-29.3.212-58.2.573-86.516a151.739,151.739,0,0,1-19.8-15.677Q734.6,149.859,742.879,203.284Z" transform="translate(280.19 368.164)" fill="none"/>
      <path id="Path_1559" data-name="Path 1559" d="M721.563,98.715c-.056,2.082-.073,4.073-.076,5.978.566,2.259,1.14,4.5,1.7,6.78a6.1,6.1,0,0,1,2.8,3.635,5.013,5.013,0,0,1-.438,3.25,111.347,111.347,0,0,1,23.341,27.932c.007-.629.018-1.258.028-1.891-6.284-12.3-14.235-31.953-16.133-55.39,0,0,9.453,10.774,16.546,28.856q.1-6.245.226-12.435a193.1,193.1,0,0,1-15.038-18.586C728.531,92.741,723.86,96.79,721.563,98.715Z" transform="translate(274.833 332.895)" fill="none"/>
      <path id="Path_1560" data-name="Path 1560" d="M730.37,86.248q2.216-2.581,4.466-5,.12-4.509.247-8.984c-2.412,3-4.8,5.783-7.086,8.327C728.705,82.168,729.515,84.072,730.37,86.248Z" transform="translate(290.947 296.804)" fill="none"/>
      <path id="Path_1561" data-name="Path 1561" d="M723.268,168.054c1.164,3.062,2.3,6.287,3.392,9.682q-.37-7.679-.813-15.306A53.956,53.956,0,0,1,723.268,168.054Z" transform="translate(279.244 520.003)" fill="none"/>
      <path id="Path_1562" data-name="Path 1562" d="M713.372,176.352a136.926,136.926,0,0,1,12.219-7.041,163.379,163.379,0,0,1-10.471,15.653,137.151,137.151,0,0,1,21.958-20.449,180.109,180.109,0,0,1-17.582-8.591A160.327,160.327,0,0,1,713.372,176.352Z" transform="translate(254.748 503.896)" fill="none"/>
      <path id="Path_1563" data-name="Path 1563" d="M765.9,127.556c-.1-.309-.208-.615-.309-.928l0,.017-.021.094C765.685,127.01,765.8,127.281,765.9,127.556Z" transform="translate(383.975 431.378)" fill="none"/>
      <path id="Path_1564" data-name="Path 1564" d="M678.278,167.784a143.148,143.148,0,0,1-10.795-10.628c.542,1.88,1.078,3.757,1.609,5.661a93.725,93.725,0,0,1,9.867,17.679Q678.61,174.178,678.278,167.784Z" transform="translate(141.156 506.946)" fill="none"/>
      <path id="Path_1565" data-name="Path 1565" d="M760.307,176.6l.01.021c-.094-.535-.2-1.067-.306-1.6l0,.076c-.014.045-.031.087-.045.136C760.085,175.685,760.206,176.137,760.307,176.6Z" transform="translate(370.095 551.161)" fill="none"/>
      <path id="Path_1566" data-name="Path 1566" d="M751.077,171.044s.212.146.563.4q.631-4.369,1.38-8.456c-1.331-1.682-2.582-3.378-3.708-5.1q.375,12.876.852,26.076c.375-4.077.834-8.028,1.373-11.816C751.383,171.781,751.223,171.416,751.077,171.044Z" transform="translate(343.713 508.763)" fill="none"/>
      <path id="Path_1567" data-name="Path 1567" d="M752.678,163.407c-1.432,12.908-1.54,21.332-1.54,21.332l-1.414.775q.443,10.979.966,22.169a91.228,91.228,0,0,1,34.716,31.386q.985-10.186,2.082-20.036c-.316-3.67-.758-7.43-1.38-11.222C784.888,206.755,764.748,189.093,752.678,163.407Z" transform="translate(344.732 522.419)" fill="none"/>
      <path id="Path_1568" data-name="Path 1568" d="M801.644,159.114a132.88,132.88,0,0,0-4.824-26.267,100.044,100.044,0,0,1-9.689-7.545c-7.163,40.252-29.888,72.225-29.888,72.225-.01-.118-.01-.236-.021-.354-1.421,3.934-2.714,7.889-3.882,11.82C764.854,185.9,786.575,168.835,801.644,159.114Z" transform="translate(353.683 428.095)" fill="none"/>
      <path id="Path_1569" data-name="Path 1569" d="M772.809,138.153l.014-.045-.021.014Z" transform="translate(401.859 459.795)" fill="none"/>
      <path id="Path_1570" data-name="Path 1570" d="M757.526,184.816a289.763,289.763,0,0,0-6.826,36.5c5.47,4.292,17.123,14.357,25.183,27.8a115.5,115.5,0,0,1-4.761-34.847s14.75,23.657,12.334,46.712l0,.01c0,.035-.014.073-.017.108-.132,1.234-.3,2.464-.539,3.694l0,.035a97.761,97.761,0,0,1,2.606,11.889c5.985-52.694,14.225-98.461,23.81-138.174l-.059-.035A238.183,238.183,0,0,1,757.526,184.816Z" transform="translate(347.148 460.783)" fill="none"/>
      <path id="Path_1571" data-name="Path 1571" d="M782.137,126.762q-5.275,18.835-9.582,37.649a5.414,5.414,0,0,1,.653,1.164c.108-.323.216-.646.348-.966.16-.163.372-.379.608-.612.083-.153.17-.3.254-.448a138.767,138.767,0,0,1,8.254-17.359A39.028,39.028,0,0,1,782.137,126.762Z" transform="translate(401.25 431.709)" fill="none"/>
      <path id="Path_1572" data-name="Path 1572" d="M681.082,106.521c0,.045,0,.09,0,.136.236.327.483.65.709.987C681.562,107.265,681.318,106.893,681.082,106.521Z" transform="translate(174.818 381.605)" fill="none"/>
      <path id="Path_1573" data-name="Path 1573" d="M686.523,113.525c-.289.886-.626,1.783-.977,2.676.893,2.047,1.779,4.184,2.648,6.436Q687.381,118.081,686.523,113.525Z" transform="translate(185.868 398.943)" fill="none"/>
      <path id="Path_1574" data-name="Path 1574" d="M727.363,245.513s1.661,1.095,4.264,3.11c-2.6-27.932-6.085-56.6-10.708-85.564A1.2,1.2,0,0,1,720.8,163c-3.785-2.353-.935-6.433-.935-6.433-.191-1.143-.389-2.29-.584-3.437-.949-3.163-2.21-7.062-3.809-11.441a190.57,190.57,0,0,1-41.635-35.616c-.073,30.576.66,64.34,2.516,101.443a100.669,100.669,0,0,1,3.083-13.137l.007-.056c-.031-.188-.055-.379-.083-.566-.035-.212-.059-.421-.09-.633-3.4-23.921,13.008-49.051,13.008-49.051a113.125,113.125,0,0,1-4.584,31.681l.007-.007c-.059.215-.125.417-.184.629-.125.431-.25.851-.372,1.269-.069.215-.132.427-.2.643-.049.167-.1.344-.156.514,11.236-17.87,28.859-29.485,28.859-29.485-12.052,28.561-35.588,48.4-37.089,49.642-.9,4.869-1.512,9.7-1.918,14.343.056,1.025.111,2.061.167,3.09a88.832,88.832,0,0,1,19.33-32.2c-3.42,20.863-12.615,37.43-18.52,46.344l.07,1.126a89.89,89.89,0,0,1,42.121-34.587c-14.927,21.672-35.1,33.5-41.961,37.1q1.652,26.649,4.08,55.425c.191-.521.313-.827.313-.827a140.208,140.208,0,0,1,5.3,15.24,31.388,31.388,0,0,1,2.641,9.137c.195,1.223.337,2.412.427,3.531q.73,3.649,1.265,7.142c2.714-3.371,5.331-6.238,7.538-8.5-.942-29.242,20.188-57.642,20.188-57.642-1.307,25.666-11.312,48.61-16.473,58.887-1.307,3.538-2.766,6.951-4.316,10.2-.393,1.633-.765,3.26-1.105,4.879,5.978-14.885,17.1-27.254,27.1-36.127-.535-.74-1.071-1.487-1.592-2.249,0,0,1.05.361,2.85,1.143q2.492-2.153,4.824-4c-.222-.612-.441-1.223-.657-1.849,0,0,.66.334,1.766.97.942-.733,1.845-1.418,2.721-2.064q-1.048-15.723-2.45-31.834C730.508,252.4,728.85,249.023,727.363,245.513Z" transform="translate(156.876 380.499)" fill="none"/>
      <path id="Path_1575" data-name="Path 1575" d="M675.337,133.11c.108-.431.233-.852.351-1.282a1.2,1.2,0,0,1-.038-.122l0-.056C675.546,132.137,675.434,132.623,675.337,133.11Z" transform="translate(160.597 443.809)" fill="none"/>
      <path id="Path_1576" data-name="Path 1576" d="M679.923,185.324c1.081-5.87,2.294-10.871,3.409-14.854q-1.882,3.7-3.861,7.083C679.693,180.323,679.836,182.919,679.923,185.324Z" transform="translate(170.83 539.903)" fill="none"/>
      <path id="Path_1577" data-name="Path 1577" d="M680.268,197.534l.16-.174c.1-5.491.424-10.669.9-15.5-1.175-1.251-2.277-2.527-3.288-3.83Q679.1,187.671,680.268,197.534Z" transform="translate(167.288 558.609)" fill="none"/>
      <path id="Path_1578" data-name="Path 1578" d="M706.737,167.187a139.165,139.165,0,0,1-10.023-9.79c.129,1.38.25,2.777.375,4.167a93.763,93.763,0,0,1,10.325,18.329Q707.06,173.575,706.737,167.187Z" transform="translate(213.513 507.542)" fill="none"/>
      <path id="Path_1579" data-name="Path 1579" d="M706.008,171.552c-.653-.337-1.439-.754-2.349-1.262a45.433,45.433,0,0,1,.618,12s-2.589-2.412-6.423-6.794q1.095,16.458,1.974,33.631a157.9,157.9,0,0,1,6.443-33.482C706.185,174.287,706.092,172.921,706.008,171.552Z" transform="translate(216.338 539.457)" fill="none"/>
      <path id="Path_1580" data-name="Path 1580" d="M707.173,183.575c-.031-.448-.056-.9-.087-1.345a127.13,127.13,0,0,1-9.773-17.9c.077.9.143,1.821.212,2.728a50.989,50.989,0,0,1,5.345,10.388C704.358,179.37,705.793,181.42,707.173,183.575Z" transform="translate(214.996 524.709)" fill="none"/>
      <path id="Path_1581" data-name="Path 1581" d="M683.375,112.256l-.014-.014a134.263,134.263,0,0,1-9.317-14.631c-.066,3.229-.122,6.506-.163,9.814a94.339,94.339,0,0,1,11.521,7.552C684.737,114.109,684.056,113.195,683.375,112.256Z" transform="translate(156.99 359.55)" fill="none"/>
      <path id="Path_1582" data-name="Path 1582" d="M671.005,170.556c.285,1.185.573,2.367.858,3.566-.07-1.07-.139-2.151-.208-3.229C671.45,170.789,671.234,170.678,671.005,170.556Z" transform="translate(149.874 540.116)" fill="none"/>
      <path id="Path_1583" data-name="Path 1583" d="M676.9,83.477l.827-.476q.9-.865,1.807-1.668-.568-1.752-1.143-3.5c-.824,2.259-1.574,4.466-2.262,6.6C676.392,84.113,676.646,83.786,676.9,83.477Z" transform="translate(162.565 310.592)" fill="none"/>
      <path id="Path_1584" data-name="Path 1584" d="M682.075,83.114c-.038.125-.07.247-.111.372a43.388,43.388,0,0,1-5.526-8.529q-1.152,15.206-2.04,32.272A138.19,138.19,0,0,1,682.1,83.2Z" transform="translate(158.273 303.473)" fill="none"/>
      <path id="Path_1585" data-name="Path 1585" d="M668.44,71.361a136.562,136.562,0,0,1,16.432,22.294c.021-.142.038-.282.055-.424q-6.954-18.167-14.836-35.848A39.454,39.454,0,0,1,668.44,71.361Z" transform="translate(143.524 259.971)" fill="none"/>
      <path id="Path_1586" data-name="Path 1586" d="M672.62,171.853c-.667-1.015-1.376-2.127-2.109-3.329.174.716.347,1.446.525,2.165q.85,1.23,1.668,2.509C672.679,172.75,672.647,172.3,672.62,171.853Z" transform="translate(148.648 535.086)" fill="none"/>
      <path id="Path_1587" data-name="Path 1587" d="M697.366,167.816l.007.007.038.167q.36,1.319.647,2.655c.034.163.069.33.107.5.045.219.094.431.132.65l.1.181a115.018,115.018,0,0,1,9.457,14.736,152.8,152.8,0,0,1-7.041-23.278c-.3-.89-.584-1.821-.838-2.815a26.4,26.4,0,0,1-1.053-8.073,120.792,120.792,0,0,1-1.043-13.8A67.405,67.405,0,0,1,704.5,146.7c-5.345-22.454-11.479-44.8-18.517-66.835-2.367.375-4.066.546-4.872.608a174.8,174.8,0,0,0-5.5,22.267l-.559-.275q-.651,14.247-1.063,29.77C681.626,139.46,693.094,152.361,697.366,167.816Z" transform="translate(157.255 315.612)" fill="none"/>
      <path id="Path_1588" data-name="Path 1588" d="M699.559,186.229c.862-2.016,1.793-3.99,2.815-5.915.049-.4.135-1.2.243-2.335-.122-1.745-.24-3.5-.355-5.262C701.14,177.405,700.254,181.965,699.559,186.229Z" transform="translate(220.555 545.465)" fill="none"/>
      <path id="Path_1589" data-name="Path 1589" d="M701.7,133.044a171.619,171.619,0,0,0-10.7-21.481,131.887,131.887,0,0,1-13-5.6q2.8,2.273,5.6,4.831l.031.028h0A90.5,90.5,0,0,1,701.7,133.044Z" transform="translate(167.162 380.217)" fill="none"/>
      <path id="Path_1590" data-name="Path 1590" d="M709.713,183.2a80.11,80.11,0,0,1,9.644-17.158c-2.527,3.072-5.091,6-7.656,8.768C710.964,177.615,710.3,180.42,709.713,183.2Z" transform="translate(245.69 528.942)" fill="none"/>
      <path id="Path_1591" data-name="Path 1591" d="M707.737,81.773A27.52,27.52,0,0,1,714.3,95.8c1.011,1.223,2.037,2.527,3.062,3.906l.195-.278c-.059.1-.115.212-.17.313.292.4.587.782.879,1.192q.62-.652,1.262-1.244-5.891-19.507-12.379-38.351-1.34,11.375-2.586,24.355c.691.612,1.508,1.359,2.408,2.221A25.008,25.008,0,0,1,707.737,81.773Z" transform="translate(232.935 269.751)" fill="none"/>
      <path id="Path_1592" data-name="Path 1592" d="M707.862,80.4c-1.074-.3-2.273-.646-3.587-1.046-.288,4.521-.563,9.144-.82,13.9.167.094.33.188.5.288A136.985,136.985,0,0,1,707.862,80.4Z" transform="translate(230.199 314.36)" fill="none"/>
      <path id="Path_1593" data-name="Path 1593" d="M709.414,198.731c.069-6,.406-11.639.924-16.873-1.175-1.255-2.28-2.53-3.288-3.833C707.8,184.84,708.6,191.756,709.414,198.731Z" transform="translate(239.101 558.604)" fill="none"/>
      <path id="Path_1594" data-name="Path 1594" d="M707.086,83.591c.031.07.052.136.08.205q.6,1.486,1.126,3c.963-2.454,1.925-4.7,2.867-6.756-.146-.4-.289-.82-.431-1.23a27.522,27.522,0,0,1-1.1,4.66,43.381,43.381,0,0,1-5.515-8.511c-.056.7-.108,1.39-.16,2.1a63.112,63.112,0,0,1,3.124,6.52Z" transform="translate(231.427 303.485)" fill="none"/>
      <path id="Path_1595" data-name="Path 1595" d="M742.879,178.033a156.6,156.6,0,0,1-22.809-38.069A117.694,117.694,0,0,1,704,150.275c.257,4.17.525,8.369.813,12.619,8.164,2.819,22.711,8.716,35.977,18.531C741.548,180.15,742.254,179.013,742.879,178.033Z" transform="translate(231.549 464.389)" fill="none"/>
      <path id="Path_1596" data-name="Path 1596" d="M706.71,179.241a99.4,99.4,0,0,1,8.876-12.779,112.9,112.9,0,0,1-5.828,24.14c.567,1.567,1.115,3.128,1.62,4.685a118.882,118.882,0,0,1,19.462-15.257c1.213-3.114,2.516-6.051,3.823-8.747a172.736,172.736,0,0,1-30.326-23.254Q705.394,163.3,706.71,179.241Z" transform="translate(232.38 484.353)" fill="none"/>
      <path id="Path_1597" data-name="Path 1597" d="M708.3,175.245c.619,5.272.945,10.1,1.105,14.326a157.092,157.092,0,0,1,5.217-20.821C712.5,171.015,710.38,173.191,708.3,175.245Z" transform="translate(242.18 535.643)" fill="none"/>
      <path id="Path_1598" data-name="Path 1598" d="M719.424,160.889a154.536,154.536,0,0,1-12.1,12.692c.3,1.2.56,2.5.778,3.878.083.525.156,1.036.219,1.543,3.145-2.746,6.277-5.255,9.29-7.517A76.648,76.648,0,0,1,719.424,160.889Z" transform="translate(239.774 516.186)" fill="none"/>
      <path id="Path_1599" data-name="Path 1599" d="M736.188,84.4c-.135-2.888-.177-5.835-.115-8.824-5.182,5.512-9.648,9.644-12.518,12.164,1.818,2.078,3.67,4.323,5.516,6.718C731.319,90.952,733.71,87.6,736.188,84.4Z" transform="translate(279.954 304.998)" fill="none"/>
      <path id="Path_1600" data-name="Path 1600" d="M713.421,84.314a54.014,54.014,0,0,1-1.685,10.461c2.686,4.546,5.4,9.582,8.024,15.1Q716.716,96.97,713.421,84.314Z" transform="translate(250.698 326.635)" fill="none"/>
      <path id="Path_1601" data-name="Path 1601" d="M723.832,82.121a213.892,213.892,0,0,0-2.266,22.67A96.889,96.889,0,0,1,727.9,88.936C726.525,86.75,725.163,84.481,723.832,82.121Z" transform="translate(275.031 321.206)" fill="none"/>
      <path id="Path_1602" data-name="Path 1602" d="M679.625,83.293q1.522,4.124,3.041,8.4a52.517,52.517,0,0,1,29.975-4.587,103.544,103.544,0,0,1-27.118,12.779c8.379,24.5,16.56,52.575,24.095,84.733a99.511,99.511,0,0,1,5.39-22.955c4.069,18.795,1.8,37.353-.024,47.126q2.184,10.358,4.271,21.228c.907-25.763,16.212-49.649,16.212-49.649.511,27.365-9.147,52.315-13.133,61.41a4,4,0,0,1-.007,4.782c5.884,33.138,11.045,69.761,15.16,110.183,1.54,2.009,3.02,4.125,4.414,6.336a115.36,115.36,0,0,1-5.495-34.747A98.592,98.592,0,0,1,747.8,354.952q-.412-10.322-.747-20.79c-1.547-.921-.181-3.107-.181-3.107l.09.035c-1.442-47.3-1.536-96.688.532-145.92-1.338-.907-.049-2.172-.049-2.172l.143.052c.893-20.682,2.183-41.333,3.913-61.778a170.2,170.2,0,0,1-18.684-19.552,153.075,153.075,0,0,1,19.681,8.164c.365-3.951.761-7.882,1.164-11.816-13.842-5.029-33-13.731-49.854-27.57C696.209,79.366,685.568,82.317,679.625,83.293Z" transform="translate(171.211 292.433)" fill="none"/>
      <path id="Path_1603" data-name="Path 1603" d="M710.03,82q-1.027-2.513-2.012-5.171c-.942,2.391-1.8,4.751-2.586,7.048.3.3.664.678,1.1,1.14Q708.261,83.385,710.03,82Z" transform="translate(235.093 308.107)" fill="none"/>
      <path id="Path_1604" data-name="Path 1604" d="M728.83,84.087c-.441.483-.879.949-1.317,1.421.879,1.494,1.727,3.013,2.541,4.57C729.626,88.171,729.22,86.165,728.83,84.087Z" transform="translate(289.752 326.073)" fill="none"/>
      <path id="Path_1605" data-name="Path 1605" d="M704.036,92.952c10.861,6.464,22.545,15.177,31.65,26.347a219.677,219.677,0,0,0-23.539-38.9c-.257-.056-.911-.205-1.884-.452-1.255.163-2.182.254-2.714.3C706.048,85.022,704.891,89.383,704.036,92.952Z" transform="translate(231.638 315.835)" fill="none"/>
      <path id="Path_1606" data-name="Path 1606" d="M706.247,79.931l.014-.007c-.261-.327-.529-.646-.792-.97a1.163,1.163,0,0,1,.017.153C705.744,79.381,706,79.649,706.247,79.931Z" transform="translate(235.185 313.367)" fill="none"/>
      <path id="Path_1607" data-name="Path 1607" d="M706.377,80.291a151.313,151.313,0,0,1,9.495,11.921c-1.95-3.621-4.052-7.813-6.134-12.508C708.5,79.944,707.378,80.135,706.377,80.291Z" transform="translate(237.432 315.223)" fill="none"/>
      <path id="Path_1608" data-name="Path 1608" d="M707.651,37.131a46.583,46.583,0,0,0-27.546,25.9l-.055.073c-.195.452-.362.928-.532,1.4l.014-.021c-.069.184-.142.354-.212.535C679.32,65.021,696.7,57.6,707.651,37.131Z" transform="translate(170.456 209.84)" fill="#013f04"/>
      <path id="Path_1609" data-name="Path 1609" d="M736.657,37.131a46.564,46.564,0,0,0-27.542,25.9c-.017.024-.042.049-.055.073-.184.452-.354.928-.535,1.4l.017-.021c-.07.184-.143.354-.212.535C708.329,65.021,725.723,57.6,736.657,37.131Z" transform="translate(242.264 209.84)" fill="#013f04"/>
      <path id="Path_1610" data-name="Path 1610" d="M760.174,39.927s23.57,1.449,38.691-15.354C798.865,24.572,773.332,20.006,760.174,39.927Z" transform="translate(370.6 177.635)" fill="#013f04"/>
      <path id="Path_1611" data-name="Path 1611" d="M763.714,50.545c8.32-15.83-3.913-30.917-3.913-30.917C754.251,35.615,763.714,50.545,763.714,50.545Z" transform="translate(365.357 166.513)" fill="#013f04"/>
      <path id="Path_1612" data-name="Path 1612" d="M765.441,12.826c-.275.542-.532,1.123-.8,1.7l.017-.021c-.1.219-.212.424-.313.643,0,0,22.423-7.5,38.115-31.893a58.232,58.232,0,0,0-36.922,29.464A1.486,1.486,0,0,0,765.441,12.826Z" transform="translate(380.935 76.467)" fill="#013f04"/>
      <path id="Path_1613" data-name="Path 1613" d="M711.7,19.874c-18.7-13.606-40.3-.782-40.3-.782C690.825,29.2,711.7,19.874,711.7,19.874Z" transform="translate(150.854 151.635)" fill="#013f04"/>
      <path id="Path_1614" data-name="Path 1614" d="M690.239-13c.184-.149.379-.306.573-.462C690.813-13.458,690.6-13.3,690.239-13Z" transform="translate(197.485 84.613)" fill="#013f04"/>
      <path id="Path_1615" data-name="Path 1615" d="M678.553,17.28c.024.487.063.994.1,1.494l0,0c.014.184.017.365.035.549,0,0,18.618-13.269,19.751-35.122,0,0-20.689,11.4-19.886,33.068Z" transform="translate(168.51 78.811)" fill="#013f04"/>
      <path id="Path_1616" data-name="Path 1616" d="M693.637,9.36c-.028-.153-.08-.285-.111-.438l.024.035c-.094-.361-.17-.737-.264-1.091a.829.829,0,0,0-.07-.1c-4.2-15.594-21.367-19.281-21.367-19.281C677.414,3.9,693.637,9.36,693.637,9.36Z" transform="translate(151.965 89.428)" fill="#013f04"/>
      <path id="Path_1617" data-name="Path 1617" d="M724.151,12.614s-22.5,11.278-24.613,33.4l-.049.1c-.038.5-.052.994-.062,1.5l.007-.024c-.007.191-.028.375-.035.566C699.4,48.157,718.953,35.513,724.151,12.614Z" transform="translate(220.162 149.151)" fill="#013f04"/>
      <path id="Path_1618" data-name="Path 1618" d="M712.648,40.437c-.014-.156-.055-.3-.069-.459l.028.049c-.042-.372-.076-.744-.128-1.112l-.076-.122c-2.412-16.042-19.024-22.868-19.024-22.868C697.175,31.863,712.648,40.437,712.648,40.437Z" transform="translate(205.253 157.347)" fill="#013f04"/>
      <path id="Path_1619" data-name="Path 1619" d="M655.291,50.31c.024.209.021.417.049.626,0,0,8.643-10.8,11.813-32.748,0,0-12.678,14.152-11.986,30.343-.066.361-.122.692-.167.977.063.344.156.7.247,1.046C655.26,50.473,655.281,50.39,655.291,50.31Z" transform="translate(110.253 162.946)" fill="#013f04"/>
      <path id="Path_1620" data-name="Path 1620" d="M649.179,26.709c.1.038.205.073.323.111C649.294,26.747,649.179,26.709,649.179,26.709Z" transform="translate(95.846 184.041)" fill="#013f04"/>
      <path id="Path_1621" data-name="Path 1621" d="M669.5,38.108c-.038-.1-.094-.184-.128-.278l.01.01c-.1-.25-.208-.5-.309-.74l-.08-.073c-5.011-10.635-20.14-13.394-20.14-13.394C658.65,35.494,669.5,38.108,669.5,38.108Z" transform="translate(95.047 176.427)" fill="#013f04"/>
      <path id="Path_1622" data-name="Path 1622" d="M640.778,119.083c.129.476.285.952.441,1.435v-.01c.055.181.1.358.156.535,0,0,9.22-16.515,5.328-39.39A46.59,46.59,0,0,0,640.778,119Z" transform="translate(71.12 320.048)" fill="#013f04"/>
      <path id="Path_1623" data-name="Path 1623" d="M1283.781,348.132c6.916-13.46,8.4-23.142,8.4-23.142a96.975,96.975,0,0,1-3.2,9.436v-.052c2.5-11.587-4.883-23.365-4.883-23.365-.386,14.729,3.59,23.361,4.33,24.838a141.511,141.511,0,0,1-8.681,17.453c2.812-13.123-5.515-27.337-5.515-27.337a65.771,65.771,0,0,0,3.295,29.881c-1.23,1.23-2.544,2.544-3.945,3.955a307.381,307.381,0,0,0-32.47,38.524,31,31,0,0,0-18.454,18.92,1.158,1.158,0,0,1-.076.1c-.115.348-.233.706-.351,1.067l.021-.024c-.049.142-.1.268-.149.414a38.76,38.76,0,0,0,9.835-7.048q-1.512,2.315-3.037,4.74a39.472,39.472,0,0,0-10.287,14.3l-.007.01c-.1.254-.2.507-.3.758-.153.379-.309.747-.455,1.133,0,0,.632-.2,1.713-.646-1.188,2.082-2.384,4.2-3.583,6.377,5.932-17.478,7.608-29.426,7.608-29.426a247.57,247.57,0,0,1-12.251,38.094q-2.685,5.135-5.376,10.6c-.577.149-3.124.97-1.939,3.628a1.624,1.624,0,0,0,.09.17,612.856,612.856,0,0,0-30.284,76.264c-7.618,5.133-20.644,16.567-19.611,34.288a100.447,100.447,0,0,0,14.117-16.7q-4.129,13.794-8.031,28.766c-1.175.705-2.408,1.463-3.7,2.287-1.707-16.112-6.214-26.8-7.125-28.839v0c1.147-18.7-13.86-36.992-13.86-36.992a86.108,86.108,0,0,0,6.1,23.612l-.031-.031c.316.772.633,1.512.945,2.238-9.967-12.588-24.255-19.914-24.255-19.914a101.917,101.917,0,0,0,20.063,24.8c-8.205,10.614-28.488,40.074-27.688,70.845-.111.41-.208.782-.275,1.067.076.528.195,1.057.3,1.588a188.133,188.133,0,0,0-9.825,28.192,222.748,222.748,0,0,0-1.244-35.341c-.007-1.387-.062-2.853-.177-4.372-.375-5-1.293-9.3-2.363-11.681a175.936,175.936,0,0,0-5.074-19.507s-.177.354-.459.963q-.141-36.116.511-69.455c8.925-3.785,35.275-16.484,56.054-41.979,0,0-32.783,8.3-55.992,38.834.01-.462.021-.928.031-1.394,8.261-10.51,21.4-30.232,27.765-55.9,0,0-16.581,13.662-27.344,38.2.035-1.3.069-2.607.108-3.9.973-5.734,2.224-11.684,3.837-17.658,1.88-1.317,33.3-23.678,51.248-58.122,0,0-23.146,12.7-38.952,33.84,4.588-11.448,9.206-26.521,10.36-42.747,0,0-21.359,27.553-21.287,56.541l-.007.01c0,.066.007.136.01.2,0,1.06.042,2.12.108,3.176.01.2.017.4.031.6.021.264.035.535.059.8l-.017.08a126.557,126.557,0,0,0-5.182,16.112c2.617-84.3,8.727-154.473,16.056-211.938l.66.4a219.55,219.55,0,0,1,9.109-27.195c4.5,0,30.76-.667,58.362-16,0,0-29.5-8.351-55.717,13.113-.365.167-.737.344-1.053.5-.358.361-.716.747-1.07,1.123a178.631,178.631,0,0,1,16.292-31.122s-15.521,18.225-25.381,49.976q2.815-21.149,5.8-39.932a53.488,53.488,0,0,0,6.026,11.173c5.453-12.859,1.581-24.6-2.572-32.133,5.494-31.914,11.083-58.08,16.021-78.964a294.9,294.9,0,0,1,14.086-38.58,196.2,196.2,0,0,0-10.277,22.958q1.872-7.47,3.538-13.78c.49,1.1.823,1.71.823,1.71.063-.184.1-.358.167-.542v.056c.157-.441.313-.89.441-1.324,0-.045,0-.1,0-.142a40.446,40.446,0,0,0,1.915-12.324c1.317-4.893,2.433-9.008,3.295-12.365,15.055-58.692-3.34-5.192-3.34-5.192-.65,1.852-1.286,3.729-1.925,5.6a33.827,33.827,0,0,0-4.25-8.782,52.383,52.383,0,0,0-.417,22.739c-.4,1.227-.789,2.464-1.178,3.694a47.666,47.666,0,0,0-10.04-20.275A65.353,65.353,0,0,0,1133,100.338q-.923,3.1-1.839,6.221-.505,1.71-1,3.427-1.741,6.037-3.42,12.143c-.427,1.54-.858,3.079-1.276,4.626q-1.757,6.469-3.451,13.015-.657,2.544-1.3,5.1-1.413,5.557-2.781,11.166-.714,2.935-1.421,5.887-1.324,5.547-2.6,11.125c-.406,1.776-.817,3.552-1.213,5.335q-1.507,6.641-2.937,13.342-.542,2.507-1.063,5.025-1.366,6.459-2.676,12.96c-.222,1.112-.441,2.217-.664,3.322q-.9,4.525-1.78,9.064c.059-.264.118-.539.181-.813-7.4,38.347-13.481,77.636-18.409,117.137l-.167-.076s-1.731,1.435-.156,2.707c-7.566,61.149-12.442,122.7-15.431,181.8l-.1-.052s-1.939,2.589-.09,3.889q-.646,13.069-1.171,25.961a123.192,123.192,0,0,0-11.507-34.3,141.31,141.31,0,0,0,2.513,39.946v0c.01.063.024.118.031.177q.261,1.277.525,2.513l.09.424c.059.261.111.528.17.782a111.732,111.732,0,0,0-9.286-14.715c-.712-20.188-1.394-40.648-2.033-61.229a176.19,176.19,0,0,0,3.281-19.2c29.485-20.456,22.221-61.851,22.221-61.851a129.089,129.089,0,0,0-7.694,12.626,28.333,28.333,0,0,0-4.108,7.653c-.4,1.011-.72,1.995-1.015,2.944A162.25,162.25,0,0,0,1053.037,453a137.68,137.68,0,0,0-.925-21.839c.195-.354.379-.692.542-1.056.01-.205.024-.48.031-.782,7.611-23-2.186-50.09-5.109-57.295a195.688,195.688,0,0,0,12.1-22.948,165.218,165.218,0,0,0-14.207,10.544q-.2-10.014-.379-19.969c.907-1.821,1.79-3.667,2.624-5.554,0,0-.99.633-2.687,1.832-.466-26.892-.8-53.392-.977-79.176,8.195-6.259,31.205-25.426,46.066-53.493,0,0-32.787,17.631-46.108,47.692-.007-1.491-.014-2.971-.021-4.462.883-4.633,2-9.474,3.42-14.325,1.39-.966,22.924-16.24,35.939-40.815,0,0-15.806,8.49-26.993,23.452.066-.17.139-.348.208-.518.059-.139.115-.281.174-.424.181-.445.358-.893.542-1.352.052-.136.1-.264.16-.4l-.007,0a112.236,112.236,0,0,0,7.194-28.317s-16.359,21.1-16.014,43.376v.215c.007.233.007.462.014.688l-.014.063a105.866,105.866,0,0,0-4.647,14.148c-.32-70.939.643-135.852,3.517-187.635.247-4.452.473-8.636.674-12.595l.2.052s-.045-.928-.069-2.582c.518-10.238.883-18.746,1.119-25.61.014-.156.028-.313.045-.469,4.309-1.258,29.325-9.276,51.5-31.765,0,0-30.649.278-49.778,28.244-.306.271-.612.542-.876.782-.24.445-.472.911-.709,1.373a197.672,197.672,0,0,1,3.524-21.815c.038.177.063.351.1.532,0,0,17.474-15.882,15.966-38.438,0,0-14.117,10.131-16.431,26.6-1.613-12.748-12.755-20.456-12.755-20.456-.834,16.9,12.442,28.564,12.442,28.564.045-.222.073-.441.111-.66.056.615.132,1.237.219,1.863-1,3.368-2.065,7.476-3.055,12.23.042-6.35-.188-9.217-.633-8.928-3.3-17.182-19.351-26.423-19.351-26.423.594,17.971,12.709,30.538,17.637,34.927-1.821,13.432-4.525,42.229-7.476,82.874-3.559,4.091-8.007,11.2-6.833,20.241-.056-.184-.111-.354-.167-.528l.084.007c-.059-.132-.132-.254-.2-.382l.014.014c-.014-.035-.031-.07-.049-.1-.629-1.894-1.039-2.912-1.039-2.912.181.643.348,1.289.518,1.932-7.958-14.19-25.662-13.453-25.662-13.453,8.473,12.473,23.525,14.6,26.024,14.868a159.249,159.249,0,0,1,4.153,27.191c-.01.146-.021.3-.028.441-8.028-20.272-33.94-29.21-33.94-29.21a90.085,90.085,0,0,0,33.6,34.695c-1.449,23.469-2.891,49.309-4.274,77.139a60.44,60.44,0,0,0-15.368-13.234,110.165,110.165,0,0,0,4.028,10.93,23.459,23.459,0,0,0,2.694,6.356c.441.772.89,1.477,1.334,2.144,2.137,4.091,4.354,7.8,6.481,11.041q-.354,7.606-.706,15.372a74.81,74.81,0,0,0-7.927-16.185,120.931,120.931,0,0,0-1.588,13.766,26.634,26.634,0,0,0-.49,8.112c.063,1.025.17,1.991.3,2.919a152.1,152.1,0,0,0,2.523,24.182,114.558,114.558,0,0,0-6.523-16.286,1.138,1.138,0,0,0-.045-.167c0-.2-.007-.4-.007-.6,0-.219-.014-.445-.017-.664q-.031-1.381-.139-2.756v-.052l0,0c-1.971-24.807-22.19-46.883-22.19-46.883,2.127,13.8,7.142,26.364,11.872,35.838C991.3,229.747,970.6,220.516,970.6,220.516a125.226,125.226,0,0,0,12.615,16.616c.362.921.73,1.835,1.112,2.742l.017.038c1.609,3.8,3.371,7.462,5.227,10.993l.007.017a189.369,189.369,0,0,0,37.159,48.259c.535,3.343.949,6.4,1.261,9.088q-.772,21.165-1.453,43.254a117.846,117.846,0,0,0-15.591,18.923c.063-.184.118-.379.181-.566.094-.288.188-.58.278-.876.208-.633.407-1.282.608-1.936.042-.153.09-.3.139-.445l-.007,0a141.751,141.751,0,0,0,6.4-39.577s-19.573,28.919-17.63,57.889h0l0,.021c.08,1.15.188,2.3.337,3.444.021.156.038.313.059.466.038.285.07.57.115.851l-.021.142-.129.389A133.857,133.857,0,0,0,986.81,376.47a149.164,149.164,0,0,0,11.344,25.589,178.806,178.806,0,0,0-3.732,28q-2.846-11.062-5.842-21.87c4.417,3.948,7.267,6.054,7.267,6.054-.01-.334-.049-.646-.066-.977l0,0c-.017-.4-.059-.785-.083-1.182a55.162,55.162,0,0,0-12.828-31.379c.6-.379,1.2-.761,1.793-1.164,0,0-1.14-.219-3.11-.379q-1.053-1.209-2.141-2.349-2.054-6.668-4.163-13.224c.608-.678,1.2-1.376,1.769-2.123,0,0-.931-.087-2.478-.07q-12.72-39.223-27.521-74.526a217.812,217.812,0,0,1,6.3-21.009,156.782,156.782,0,0,0-6.694,18.913c.671-4.021,1.314-7.75,1.918-11.149.459.838.761,1.3.761,1.3.042-.149.059-.292.1-.441l0,.045c.094-.365.2-.726.275-1.088l-.01-.139a32.191,32.191,0,0,0,.73-9.9c.737-4,1.359-7.35,1.832-10.086,8.2-47.762-3.007-3.927-3.007-3.927-.4,1.526-.768,3.079-1.161,4.612a26.916,26.916,0,0,0-3.958-6.749,41.831,41.831,0,0,0,1.129,18.155c-.236,1.011-.455,2.047-.692,3.062a38.078,38.078,0,0,0-9.321-15.556,50.126,50.126,0,0,0-.174,6.878c-.931-2.016-1.863-4.045-2.808-6.04a4.415,4.415,0,0,0,.143-3.771,5.192,5.192,0,0,0-3.149-2.474c-.834-1.71-1.679-3.378-2.52-5.074-1.321-4.775-3-11.5-4.452-19.34,3.948-2.69,28.609-20.282,42.966-50.271,0,0-35.852,17.6-42.89,47.484l-.024.038c-.055.24-.094.493-.146.74s-.094.483-.139.726a172.149,172.149,0,0,1-2.912-33.888s-2.648,19.115,3.34,46.052q-7.882-15.394-16.167-29.714a64.865,64.865,0,0,0,12.8,8.042c-.035-.184-.08-.361-.115-.549l.007.01c-.09-.493-.181-.994-.3-1.477l0,0c-3.719-15.938-18.263-24.15-25.311-27.264q-8.643-13.559-17.745-26.114a42.271,42.271,0,0,0-6.846-16.609,38.017,38.017,0,0,0-1.654,5.237q-5.948-7.726-12.1-15.062c-1.418-4.174-2.881-8.859-4.229-13.891,2.645-1.265,26.044-13.1,32.324-38,0,0-28.015,8.928-32.248,35.591l0,0c-.038.257-.066.525-.1.789-.045.33-.09.667-.132,1.011A164.451,164.451,0,0,1,845.7,88.848s-.389,15.6,6.054,37.711q-9.4-10.963-19.306-21.085a54.308,54.308,0,0,0,15.969,7.6c-.163-.57-.347-1.126-.539-1.672a2.56,2.56,0,0,0-.087-.278h0c-7.222-20.463-30.653-23.445-30.653-23.445a40.01,40.01,0,0,0,2.9,5.265C802.939,75.937,801.709,75.934,801,75.934l-.678.083-.222.48c-.264.577-.97,2.113,21.916,28.783q17.615,22.948,33.7,48.2a24.946,24.946,0,0,0,8.212,16.991,30.8,30.8,0,0,0,.41-3.173q2.4,3.957,4.758,7.966A107.176,107.176,0,0,0,855.3,165.5a154.42,154.42,0,0,1,15.639,12.925q2.383,4.082,4.727,8.205c-29.84-8.82-52.461,7.84-52.461,7.84A125.629,125.629,0,0,0,877.8,190.44q17.589,31.466,32.846,65.671a4.942,4.942,0,0,0,.038,3.726,4.253,4.253,0,0,0,2.533,2.123q11.49,26.331,21.666,54.41-1.115,6.506-2.151,13.081l-.264,1.672q-1.147,7.35-2.2,14.784c-.25,1.779-.483,3.569-.727,5.356q-.72,5.281-1.4,10.589-.376,2.992-.737,6l-.111.883a122.148,122.148,0,0,0-30.187-25.791c7.288,14.562,17.342,26.722,25.978,35.55-19.625-11.632-41.857-15.347-47.585-16.147.236-.288.476-.577.709-.879,0,0-15.952-1.536-26.055,9.46a3.468,3.468,0,0,0-1.011-.779c.177-.323.347-.65.532-.973,0,0-.233.323-.629.924a4.124,4.124,0,0,0-.389-.167c-.917-2.415-1.832-4.772-2.749-7.1a26.253,26.253,0,0,0-2.488-6.221q-2.778-6.85-5.547-13.22c1.887-17.822,3.941-33.047,5.9-45.868a236.172,236.172,0,0,1,8.723-31.657,157.367,157.367,0,0,0-6.7,18.976c.674-4.052,1.324-7.806,1.929-11.229.462.848.771,1.317.771,1.317.042-.149.063-.292.1-.441l.007.045c.09-.365.181-.726.271-1.088,0-.038,0-.087,0-.132a32.554,32.554,0,0,0,.719-9.95c.73-3.976,1.352-7.319,1.821-10.047,8.216-47.762-3-3.927-3-3.927-.4,1.522-.768,3.072-1.157,4.6a27.005,27.005,0,0,0-3.965-6.739,41.8,41.8,0,0,0,1.136,18.152c-.219.928-.42,1.884-.636,2.819-.021.08-.038.156-.056.236A38.08,38.08,0,0,0,834.4,252.91a52.187,52.187,0,0,0,6.158,29.7c-.087.4-.163.81-.247,1.213q-1.115,5.265-2.169,10.589c-.309,1.571-.622,3.142-.924,4.723q-1.141,5.927-2.207,11.931c-.2,1.133-.41,2.262-.608,3.4q-1.34,7.679-2.575,15.458c-19-40.818-36.735-65.5-47.894-79.781l-1.477-1.891.125-.042s-2.975-4.243-6.718-10.965c1.095-2.527,9.533-22.958,6.562-47,0,0-14.8,24.414-7.514,45.131v.017l.028.063c.042.122.09.24.135.358a131.248,131.248,0,0,1-11.667-28.3s1.463,10.447,8.709,25.033c-8.191-13.745-33.972-18.016-33.972-18.016a84.428,84.428,0,0,0,28.682,17.634c4.247,6.951,11.538,17.665,11.538,17.665.81,1.314,1.592,2.641,2.37,3.965l.007.007q14.982,25.1,27.521,51.877c-1.63,4.622-4.031,14.833,2.064,23.911-.143-.149-.254-.257-.389-.393l.083-.035c-.111-.087-.226-.163-.34-.247h.007l-.08-.059c-1.394-1.4-2.235-2.155-2.235-2.155.448.5.886,1,1.324,1.5-13.443-9.154-28.964-.6-28.964-.6,13.133,7.382,27.56,2.575,29.916,1.7a160.092,160.092,0,0,1,16.164,23.049c-16.2-14.736-43.571-11.17-43.571-11.17A90.052,90.052,0,0,0,827.9,357.279c-.243,1.873-.472,3.757-.709,5.637-.143,1.126-.278,2.249-.417,3.371q-.835,6.819-1.6,13.686c-.056.539-.125,1.067-.184,1.6.014-.1.031-.219.045-.327-2.881,26.239-4.977,52.961-6.377,79.812a114.767,114.767,0,0,0-16.275-5.515,126.121,126.121,0,0,0,15.542,13.947c.1.16.205.32.309.476-.087,1.838-.187,3.677-.264,5.515l-.129-.052s-1.286,1.265.038,2.172c-.963,22.854-1.439,45.732-1.547,68.433a76.8,76.8,0,0,0-13.919,15.611c.15-.445.3-.907.441-1.373l.021-.056c.09-.3.184-.584.275-.883l-.024.021a85.9,85.9,0,0,0,3.9-24.06s-11.872,17.568-10.694,35.157l0,.007c0,.049.01.094.01.143.045.6.1,1.209.181,1.814.021.167.038.337.063.511l.059.441-.007.063c-.837,2.461-5.192,16.393-4.31,36.2a5.139,5.139,0,0,0-1.157-.754q-6.641-18.965-13.509-35.921a100.4,100.4,0,0,0,15.59,15.309c-.6-17.731-14.625-27.918-22.684-32.328a613.023,613.023,0,0,0-37.183-73.16c.024-.059.052-.111.076-.174.938-2.759-1.675-3.336-2.262-3.437q-3.18-5.192-6.322-10.04a248.369,248.369,0,0,1-15.712-36.815s2.753,11.726,10.256,28.564c-1.383-2.047-2.76-4.035-4.129-5.988,1.119.348,1.766.49,1.766.49a39.869,39.869,0,0,0-12.5-15.121q-1.736-2.257-3.448-4.421a38.983,38.983,0,0,0,10.419,6.1c-.063-.149-.132-.275-.195-.421l.038.042c-.156-.344-.3-.7-.455-1.029l-.083-.094a30.985,30.985,0,0,0-20.109-17.144,306.461,306.461,0,0,0-35.894-35.369c-1.522-1.279-2.947-2.461-4.289-3.576a65.579,65.579,0,0,0,.532-30.055s-6.972,14.927-2.964,27.737a140.517,140.517,0,0,1-10.256-16.581c.6-1.522,3.778-10.492,2.019-25.141,0,0-6.27,12.418-2.7,23.73l.007.056a98.949,98.949,0,0,1-4.066-9.119s2.374,9.5,10.492,22.256c-8.928-11.879-33.138-13.3-33.138-13.3a78.647,78.647,0,0,0,27.633,13.335c4.879,5.022,11.187,11.066,11.187,11.066C676.943,417.9,700.3,450.9,720.037,485.694a2.428,2.428,0,0,0,1.911,3.4,675.305,675.305,0,0,1,39.272,83.9c-6.746-15.094-20.449-24.1-20.449-24.1a102,102,0,0,0,3.107,11.309,22.671,22.671,0,0,0,2.182,6.555c.375.779.765,1.5,1.154,2.189a130.178,130.178,0,0,0,9.661,18.249,97.548,97.548,0,0,0-10.308-10.76l-.059-.076c-.09-.233-.191-.459-.289-.688l-.007-.017q-.506-1.2-1.084-2.37l-.056-.122-.007,0c-9.422-18.878-32.3-29.833-32.3-29.833a103.145,103.145,0,0,0,18.541,22.472q.8.74,1.574,1.435l.045.042c.177.16.358.32.532.476-17.189-8.595-36.394-9.3-36.394-9.3,22.826,16.484,50.435,20.8,52.3,21.078a159.586,159.586,0,0,1,19.094,26.979c-18.308-19.445-48.019-26.423-48.019-26.423,19.156,20.515,44.29,31.668,52.569,34.962.928,1.877,1.407,2.964,1.407,2.964l1.422.142a3.935,3.935,0,0,0,1.686,1.105.886.886,0,0,1,.115.035c6.788,21.123,12.63,42.17,17.679,62.835a78.314,78.314,0,0,0-16.053-8.362,114.844,114.844,0,0,0,19.128,21.276c7.333,31.838,12.8,62.584,16.845,91.086-.014.014-3.135,3.507.8,5.731a1170.408,1170.408,0,0,1,10.242,119.827v.1h43.512q-12.668-76.006-20.654-142.33l1.077-.709s-.07-1.088-.139-3.027a117.37,117.37,0,0,0,21.773-28.641,85.437,85.437,0,0,0-21.829,16.442,235.971,235.971,0,0,1,3.232-34.424,191.548,191.548,0,0,0,34.667-35.306c1.633,1.863,3.284,3.639,4.945,5.31,1.063,20.24,1.71,39.852,2.023,58.609-.014.021-3.538,3.722.1,6.944.751,61.087-1.946,112.633-4.577,147.1.073-.984.146-1.967.219-2.979,0,.038-.337,3.25-.6,7.813.059-.671.108-1.369.163-2.054-.056.7-.111,1.394-.167,2.082l0-.028c-.143,1.79-.285,3.517-.428,5.2H918.87c.765-54.98-.069-105.6-2.179-152.211l.883-.5s0-2.1.195-5.675a4.044,4.044,0,0,0,.1-1.717c.247-3.938.7-9.224,1.547-15.319,1.011-.667,2.53-1.7,4.462-3.076,5.557,76.618,13.359,140.454,18.583,178.495H993.8c-7-75.235-20.5-117.408-31.341-140.169C955.4,756.8,954.312,756.8,953.52,756.8a1.048,1.048,0,0,0-.848.427c-.6.8-.233,3.541,1.108,8.177,14.934,44.964,16.6,99.959,15.41,137.889q-11.7-71.247-19.229-133.833l1.074-.709a233.586,233.586,0,0,1,3.041-49.646C959.31,715.1,979.5,698.8,995.12,674.67a242.739,242.739,0,0,1,10.774,30.945,7.157,7.157,0,0,0-1.745,3.854,5.445,5.445,0,0,0,2.506,4.9,1687.781,1687.781,0,0,1-3.812,197.418H1107.9q-.709-7.95-1.387-15.823l0,.08q-7.334-85.056-10.826-160.288a123.917,123.917,0,0,0,34.128,29.117c-.2,2.137-.407,4.25-.6,6.405a.707.707,0,0,0-.149-.017s-3.552,2.829-.327,5.627c-3.534,41.023-5.713,85.9-6.224,134.9h29.562c-.2-2.68-.407-5.529-.6-8.574-.143-3.448-.368-5.863-.386-6.1a1172.967,1172.967,0,0,1-.838-120.244c3.722-2.582.285-5.766.271-5.786,2.513-51.123,8.793-109.745,22.079-169.588l.115-.042a3.879,3.879,0,0,0,1.574-1.255l1.415-.278s.382-1.126,1.133-3.079c7.931-4.045,31.928-17.464,49.114-39.65,0,0-28.943,9.682-45.375,30.722A159.538,159.538,0,0,1,1197.1,559.3c1.814-.445,28.918-7.284,50.129-25.8,0,0-19.052,2.471-35.369,12.6.094-.1.188-.205.289-.309.156-.167.316-.337.473-.514.288-.313.58-.629.869-.949.111-.125.223-.24.33-.361l-.007,0a102.961,102.961,0,0,0,16.386-24.088s-21.773,13.012-29.409,32.679l-.01.007c-.021.056-.035.111-.059.167q-.453,1.183-.837,2.395l-.014.052c-.073.226-.146.445-.212.671-.035.052-.062.094-.087.139a97.332,97.332,0,0,0-9.259,11.66,129.34,129.34,0,0,0,7.962-19.111c.32-.712.636-1.46.935-2.266a22.843,22.843,0,0,0,1.567-6.708A101.459,101.459,0,0,0,1202.832,528s-12.8,10.221-18.138,25.857a676.548,676.548,0,0,1,31.375-87.127,2.438,2.438,0,0,0,1.6-3.562c16.442-36.464,36.655-71.474,61.49-103.472,0,0,5.72-6.6,10.11-12.046a78.6,78.6,0,0,0,26.288-15.827S1291.555,335.464,1283.781,348.132ZM1098.008,464.876l-.007.045c.01.059.035.118.045.177-.2.553-.41,1.1-.6,1.658l-.011.014C1097.622,466.138,1097.817,465.509,1098.008,464.876ZM1048.5,228.669l.024.122c-.129.337-.268.671-.389,1.011C1048.255,229.423,1048.377,229.048,1048.5,228.669ZM1017,262.606c.17.424.341.844.5,1.272-.163-.382-.351-.758-.525-1.133C1016.987,262.7,1017,262.655,1017,262.606Zm-5.582,1.9.014.01c-.059-.076-.111-.142-.167-.215-1.463-1.957-2.958-3.84-4.462-5.634a132.49,132.49,0,0,0,11.729,7.966,172.6,172.6,0,0,1,6.46,23.132A90.651,90.651,0,0,0,1011.423,264.5ZM770.538,233.378c1.4.4,2.228.584,2.318.6,1.188,2.315,2.516,4.713,4.01,7.2C774.34,238.015,772.251,235.439,770.538,233.378ZM643.169,378.312c.751.118,1.192.167,1.255.174.4.612.8,1.213,1.223,1.838C644.765,379.6,643.948,378.941,643.169,378.312Zm103.74,198.642c-.007-.035-.014-.07-.024-.1.24.25.479.5.719.758C747.375,577.381,747.138,577.172,746.909,576.953Zm28.345,38.969-.007-.014.007,0Zm.146-.671c-.139-.306-.278-.615-.424-.914-.177-.153-.406-.348-.667-.556-.094-.143-.191-.278-.289-.417a138.881,138.881,0,0,0-9.832-16.543c.014-.07.021-.132.035-.2v0c.066-.344.111-.685.17-1.029a39.038,39.038,0,0,0-1.467-18.176q7,18.277,13.008,36.627A5.216,5.216,0,0,0,775.4,615.252Zm21.172-41.367.021.087c-.07.243-.149.487-.215.737C796.44,574.437,796.5,574.159,796.572,573.885Zm-3.072,41.76.6-.427a139.118,139.118,0,0,1,1.811-38.351,114.8,114.8,0,0,0,20.39-22.385c-.017,23.323.358,46.427,1.053,69.042l-.09-.035s-1.38,2.186.181,3.107q.328,10.473.747,20.79A98.591,98.591,0,0,0,806.8,620.767a113.131,113.131,0,0,0,4.588,31.688l-.014-.014c.115.4.229.775.344,1.161l.028.094c.177.594.351,1.182.528,1.752l.021.066a91.258,91.258,0,0,0-10.082-13.067Q797.922,628.575,793.5,615.645Zm16.748,54.118c-.531-1.9-1.067-3.781-1.609-5.661a143.135,143.135,0,0,0,10.795,10.628q.323,6.4.681,12.713A93.726,93.726,0,0,0,810.247,669.763Zm8.911,33.847c.733,1.2,1.442,2.315,2.109,3.329.028.448.059.9.083,1.345q-.818-1.282-1.668-2.509C819.506,705.056,819.332,704.326,819.159,703.61Zm1.72,7.062c.229.122.445.233.65.337.069,1.077.139,2.158.208,3.229C821.452,713.038,821.164,711.857,820.879,710.672ZM842.1,391.925q-.912.8-1.807,1.668l-.827.476c-.257.309-.511.636-.771.959.688-2.137,1.439-4.344,2.262-6.6Q841.533,390.171,842.1,391.925Zm-7.392-13.495a43.388,43.388,0,0,0,5.526,8.529c.042-.125.073-.247.111-.372l.028.09a138.19,138.19,0,0,0-7.7,24.025Q833.541,393.619,834.711,378.43Zm-2.4,39.644.559.275a174.8,174.8,0,0,1,5.5-22.267c.806-.063,2.506-.233,4.872-.608,7.038,22.03,13.172,44.38,18.517,66.835a67.405,67.405,0,0,0-6.621-7.948,120.792,120.792,0,0,0,1.043,13.8,26.4,26.4,0,0,0,1.053,8.073c.254.994.539,1.925.838,2.815a152.8,152.8,0,0,0,7.041,23.278,115.018,115.018,0,0,0-9.457-14.736l-.1-.181c-.038-.219-.087-.431-.132-.65-.038-.17-.073-.337-.107-.5q-.287-1.335-.647-2.655l-.038-.167-.007-.007c-4.271-15.455-15.74-28.356-23.379-35.584Q831.644,432.314,832.306,418.073Zm18.471,72.962-.031-.028q-2.789-2.554-5.6-4.831a131.887,131.887,0,0,0,13,5.6,171.619,171.619,0,0,1,10.7,21.481,90.5,90.5,0,0,0-18.082-22.225Zm5.123-2.909c.236.372.479.744.712,1.123-.226-.337-.473-.66-.709-.987C855.9,488.217,855.9,488.172,855.9,488.126Zm-24.866-30.966a134.263,134.263,0,0,0,9.317,14.631l.014.014c.681.938,1.363,1.852,2.026,2.721a94.339,94.339,0,0,0-11.521-7.552C830.912,463.667,830.968,460.39,831.034,457.161ZM828.4,353.626a136.563,136.563,0,0,0-16.432-22.294,39.454,39.454,0,0,0,1.651-13.978q7.9,17.667,14.836,35.848C828.434,353.345,828.417,353.484,828.4,353.626ZM847.715,755.97l-.16.174q-1.158-9.853-2.228-19.507c1.011,1.3,2.113,2.579,3.288,3.83C848.14,745.3,847.816,750.479,847.715,755.97Zm3.038-30.743c-.087-2.4-.229-5-.452-7.771q1.971-3.378,3.861-7.083C853.047,714.356,851.834,719.357,850.753,725.227Zm38.125-55.2c-1.105-.636-1.766-.97-1.766-.97.216.626.435,1.237.657,1.849q-2.325,1.851-4.824,4c-1.8-.782-2.85-1.143-2.85-1.143.521.761,1.057,1.508,1.592,2.249-10.006,8.873-21.123,21.241-27.1,36.126.341-1.62.712-3.246,1.105-4.879,1.55-3.253,3.01-6.666,4.316-10.2,5.161-10.277,15.167-33.221,16.473-58.887,0,0-21.13,28.4-20.188,57.642-2.207,2.266-4.824,5.133-7.538,8.5q-.537-3.487-1.265-7.142c-.09-1.119-.233-2.308-.427-3.531a31.388,31.388,0,0,0-2.641-9.137,140.213,140.213,0,0,0-5.3-15.24s-.122.306-.313.827q-2.461-28.818-4.08-55.425c6.86-3.594,27.035-15.424,41.961-37.1a89.89,89.89,0,0,0-42.121,34.587l-.07-1.126c5.9-8.914,15.1-25.481,18.52-46.344a88.832,88.832,0,0,0-19.33,32.2c-.055-1.029-.111-2.064-.167-3.09.406-4.64,1.018-9.474,1.918-14.343,1.5-1.244,25.037-21.082,37.089-49.642,0,0-17.624,11.615-28.859,29.485.055-.17.108-.348.156-.514.066-.215.129-.427.2-.643.122-.417.247-.838.372-1.269.059-.212.125-.414.184-.629l-.007.007a113.125,113.125,0,0,0,4.584-31.682s-16.411,25.13-13.008,49.051c.031.212.055.421.09.633.028.188.052.379.083.566l-.007.056a100.667,100.667,0,0,0-3.083,13.137c-1.856-37.1-2.589-70.866-2.516-101.443a190.57,190.57,0,0,0,41.635,35.616c1.6,4.379,2.86,8.278,3.809,11.441.194,1.147.393,2.294.584,3.437,0,0-2.85,4.08.935,6.433a1.185,1.185,0,0,0,.118.059c4.622,28.96,8.108,57.632,10.708,85.564-2.6-2.016-4.264-3.11-4.264-3.11,1.487,3.51,3.145,6.888,4.91,10.12q1.423,16.108,2.45,31.834C890.723,668.613,889.82,669.3,888.878,670.031Zm-52.593-94.394c-.118.431-.243.851-.351,1.282.1-.487.208-.973.316-1.46l0,.056A1.2,1.2,0,0,0,836.285,575.636Zm35.129-60.492c.351-.893.688-1.79.977-2.676q.855,4.556,1.672,9.112C873.193,519.328,872.307,517.191,871.414,515.144Zm38.813,149.8a139.138,139.138,0,0,0,10.023,9.79q.323,6.4.678,12.706A93.76,93.76,0,0,0,910.6,669.106C910.477,667.716,910.356,666.319,910.227,664.939Zm2.082,24.1a127.135,127.135,0,0,0,9.773,17.9c.031.448.056.9.087,1.345-1.38-2.155-2.815-4.205-4.3-6.127a50.987,50.987,0,0,0-5.345-10.388C912.451,690.862,912.385,689.945,912.309,689.041Zm3.858,59.547q-.87-17.2-1.974-33.631c3.833,4.382,6.423,6.794,6.423,6.794a45.432,45.432,0,0,0-.618-12c.91.507,1.7.924,2.349,1.262.083,1.369.177,2.735.264,4.1A157.9,157.9,0,0,0,916.166,748.588Zm6.763-22.809c-1.022,1.925-1.953,3.9-2.815,5.915.695-4.264,1.581-8.824,2.7-13.512.115,1.759.233,3.517.355,5.262C923.065,724.58,922.978,725.38,922.93,725.779Zm.779-323.463a153.075,153.075,0,0,0-19.681-8.164A170.2,170.2,0,0,0,922.711,413.7c-1.731,20.446-3.02,41.1-3.913,61.778l-.143-.052s-1.289,1.265.049,2.172c-2.068,49.232-1.974,98.617-.532,145.92l-.09-.035s-1.366,2.186.181,3.107q.328,10.473.747,20.79a98.591,98.591,0,0,0-11.392-26.618,115.361,115.361,0,0,0,5.495,34.747c-1.394-2.21-2.874-4.327-4.414-6.336-4.115-40.422-9.276-77.046-15.16-110.183a4,4,0,0,0,.007-4.782c3.986-9.1,13.644-34.045,13.133-61.41,0,0-15.305,23.886-16.212,49.649q-2.086-10.885-4.271-21.228c1.821-9.773,4.094-28.331.024-47.126a99.511,99.511,0,0,0-5.39,22.955c-7.535-32.158-15.716-60.235-24.095-84.733a103.544,103.544,0,0,0,27.118-12.779,52.517,52.517,0,0,0-29.975,4.587q-1.517-4.28-3.041-8.4c5.943-.977,16.584-3.927,24.182-12.8,16.852,13.839,36.012,22.541,49.854,27.57C924.469,394.434,924.073,398.365,923.708,402.316Zm94.874,7.844c.389,2.078.8,4.084,1.223,5.992-.813-1.557-1.661-3.076-2.541-4.57C1017.7,411.109,1018.141,410.643,1018.582,410.16Zm-2.554-29.589c-.063,2.989-.021,5.936.115,8.824-2.478,3.2-4.869,6.555-7.117,10.058-1.845-2.395-3.7-4.64-5.516-6.718C1006.38,390.215,1010.846,386.083,1016.028,380.571Zm-17.165,22.757c1.331,2.36,2.693,4.629,4.066,6.815A96.889,96.889,0,0,0,996.6,426,213.892,213.892,0,0,1,998.863,403.327Zm-34.743,7.621q3.29,12.657,6.339,25.558c-2.624-5.515-5.338-10.551-8.024-15.1A54.014,54.014,0,0,0,964.12,410.949Zm-23.594-18.965c.786-2.3,1.644-4.657,2.586-7.048q.985,2.653,2.012,5.171-1.767,1.387-3.5,3.017C941.189,392.662,940.821,392.279,940.525,391.984Zm.921,1.307-.014.007c-.243-.281-.5-.549-.761-.824a1.163,1.163,0,0,0-.017-.153C940.918,392.644,941.186,392.964,941.446,393.291Zm.455,2.5c.973.247,1.627.4,1.884.452a219.677,219.677,0,0,1,23.539,38.9c-9.105-11.17-20.79-19.883-31.65-26.347.855-3.569,2.012-7.931,3.514-12.706C939.719,396.04,940.647,395.949,941.9,395.786Zm1.908-.271c1-.156,2.12-.348,3.361-.587,2.082,4.7,4.184,8.887,6.134,12.508A151.313,151.313,0,0,0,943.81,395.515Zm-3.729-64.43q6.5,18.83,12.379,38.351-.642.594-1.262,1.244c-.292-.41-.587-.8-.879-1.192.055-.1.111-.209.17-.313l-.195.278c-1.025-1.38-2.05-2.683-3.062-3.906a27.52,27.52,0,0,0-6.562-14.023,25.007,25.007,0,0,0-.768,6.138c-.9-.862-1.717-1.609-2.408-2.221Q938.735,342.46,940.08,331.085Zm-4.542,47.362a43.381,43.381,0,0,0,5.515,8.511,27.522,27.522,0,0,0,1.1-4.66c.143.41.285.827.431,1.23-.942,2.054-1.9,4.3-2.867,6.756q-.521-1.517-1.126-3c-.028-.069-.049-.136-.08-.205l-.01-.01a63.112,63.112,0,0,0-3.124-6.52C935.43,379.837,935.483,379.149,935.538,378.447Zm-1.064,15.267c1.314.4,2.513.747,3.587,1.046a136.985,136.985,0,0,0-3.91,13.14c-.167-.1-.33-.195-.5-.288C933.912,402.858,934.186,398.236,934.474,393.715Zm1.074,220.95a117.694,117.694,0,0,0,16.07-10.311,156.6,156.6,0,0,0,22.809,38.069c-.625.98-1.331,2.116-2.089,3.392C959.073,636,944.526,630.1,936.362,627.284,936.073,623.033,935.806,618.835,935.548,614.665Zm12.967,142.671c-.817-6.975-1.616-13.891-2.363-20.706,1.008,1.3,2.113,2.579,3.288,3.833C948.922,745.7,948.585,751.337,948.515,757.336Zm-.421-62.147c-.062-.507-.135-1.018-.219-1.543-.219-1.38-.483-2.679-.778-3.878a154.546,154.546,0,0,0,12.1-12.692,76.646,76.646,0,0,0-1.814,10.6C954.371,689.934,951.24,692.443,948.095,695.189Zm3.486,30.024c-.16-4.226-.487-9.053-1.105-14.326,2.085-2.054,4.205-4.229,6.322-6.5A157.1,157.1,0,0,0,951.58,725.213Zm3.823-13.071c.587-2.78,1.251-5.585,1.988-8.39,2.565-2.766,5.13-5.7,7.656-8.768A80.111,80.111,0,0,0,955.4,712.142Zm7.816-47.759a118.889,118.889,0,0,0-19.462,15.257c-.5-1.557-1.053-3.117-1.62-4.685a112.9,112.9,0,0,0,5.828-24.14,99.407,99.407,0,0,0-8.876,12.779q-1.314-15.947-2.374-31.212a172.733,172.733,0,0,0,30.326,23.254C965.735,658.333,964.432,661.269,963.219,664.383Zm6.648,24.477a163.38,163.38,0,0,0,10.471-15.653,136.938,136.938,0,0,0-12.219,7.041,160.333,160.333,0,0,0,6.124-20.428,180.138,180.138,0,0,0,17.582,8.591A137.148,137.148,0,0,0,969.868,688.86Zm14.68-35.272c1.693,2.878,3.284,5.79,4.775,8.7a79.6,79.6,0,0,0-13.061-13.432q.255-1.8.462-3.632c4.633,5.526,7.861,8.654,7.861,8.654C984.579,653.783,984.558,653.683,984.548,653.589Zm11.542,19.57c.045-.073.087-.146.135-.219.073.33.15.646.222.97C996.329,673.659,996.208,673.405,996.089,673.159ZM993,616.868a140.189,140.189,0,0,0-1.119,16.1,30.949,30.949,0,0,0-.142,9.505c.132,1.209.3,2.374.5,3.468a176.409,176.409,0,0,0,2.593,20.265c-.535.382-1.088.782-1.661,1.206a138.542,138.542,0,0,0-8.584-14.228c.01-.438.014-.865,0-1.293-.094-.216-.222-.494-.372-.8-3.5-21.937-20.334-40.505-29.481-49.177a116.43,116.43,0,0,0,22.784-24.341,89.97,89.97,0,0,0-42.129,34.58c-.021-.372-.049-.754-.073-1.122,5.912-8.918,15.108-25.485,18.517-46.341a88.891,88.891,0,0,0-19.323,32.2c-.056-1.039-.111-2.078-.167-3.11.407-4.633,1.018-9.457,1.922-14.319,1.5-1.244,25.036-21.078,37.093-49.642,0,0-17.631,11.615-28.867,29.485a115.516,115.516,0,0,0,5.491-34.729S933.449,549.887,937,573.885l.028.215c.035.24.066.483.107.719l-.014.125a100.85,100.85,0,0,0-3.069,13.092c-3.26-65.313-3.055-120.265-1.1-165.73a226.745,226.745,0,0,0,39.765,25c.195.466.365.893.525,1.293.108.483.222.966.33,1.453a6.816,6.816,0,0,0-1.23,5.018,5.464,5.464,0,0,0,3.114,3.594,1414.155,1414.155,0,0,1,25.864,172.594A84.653,84.653,0,0,0,993,616.868Zm-56.218-40.05c.09-.427.188-.862.278-1.293l.045.129C937,576.039,936.883,576.429,936.782,576.818Zm65.73,111.24a53.956,53.956,0,0,0,2.579-5.623q.443,7.632.813,15.306C1004.816,694.344,1003.676,691.119,1002.512,688.057Zm20.557-116.609q-8.257-53.345-19.229-102.193a151.739,151.739,0,0,0,19.8,15.677C1023.281,513.25,1023.079,542.151,1023.069,571.448Zm1.088-120.689c-7.093-18.082-16.546-28.856-16.546-28.856,1.9,23.438,9.849,43.091,16.133,55.39-.01.633-.021,1.262-.028,1.891a111.347,111.347,0,0,0-23.341-27.932,5.013,5.013,0,0,0,.438-3.25,6.1,6.1,0,0,0-2.8-3.635c-.556-2.276-1.129-4.521-1.7-6.78,0-1.9.021-3.9.076-5.978,2.3-1.925,6.968-5.974,12.949-11.872a193.1,193.1,0,0,0,15.038,18.586Q1024.263,444.518,1024.157,450.759Zm1.626-72.708q-2.247,2.414-4.466,5c-.855-2.176-1.665-4.08-2.374-5.658,2.291-2.544,4.675-5.324,7.086-8.327Q1025.9,373.54,1025.783,378.051Zm2.6-79.94q-.584-3.128-1.241-6.026.844-1.319,1.574-2.645Q1028.541,293.756,1028.379,298.111Zm8.879-176.507a130.057,130.057,0,0,0-3.507-16.129,38.49,38.49,0,0,0,5.008-6.544C1038.267,106.173,1037.759,113.746,1037.259,121.6Zm8.588,256.166c-.021-.956-.042-1.908-.059-2.864.149-.233.3-.476.445-.712Q1046.008,375.987,1045.846,377.77Zm.674,28.96a142.244,142.244,0,0,0,5.307,24.995c.031-.076.056-.16.083-.24.163,3.041.233,6.061.223,9.039a73.293,73.293,0,0,0-5.185-16.887Q1046.729,415.182,1046.521,406.73Zm.9,34.6c2.016,2.641,3.611,4.581,4.566,5.7a215.027,215.027,0,0,1-3.521,30.3Q1047.921,459.375,1047.417,441.334Zm4.1,127.094a183.61,183.61,0,0,0,15.486,18.44q-.245,8-.441,15.907a115.846,115.846,0,0,0-14.878-29.808C1051.63,571.455,1051.577,569.944,1051.522,568.428Zm14.513,58.758c-.01.57-.021,1.136-.031,1.706q-2.064-3.889-4.334-7.42c.257-.424.508-.855.765-1.282C1063.693,622.8,1064.912,625.132,1066.035,627.186Zm-13.571-33.513a156.493,156.493,0,0,0,7.448,21.019c-.594.487-1.206,1-1.828,1.54-1.63-2.238-3.3-4.369-4.994-6.367Q1052.776,601.816,1052.464,593.673ZM1054,632.695c1.383-1.825,2.767-3.746,4.125-5.738,3.3,2.429,6.009,4.209,7.827,5.349q-.13,7.825-.226,15.542c-.372,2.12-.625,3.295-.625,3.295l.584.514q-.042,3.514-.069,7a91.3,91.3,0,0,0-10.3,5.773Q1054.648,648.812,1054,632.695Zm11.389,243.359c-2.447-46.035-6.078-117.885-9.665-201.874a117.585,117.585,0,0,0,9.842-10.009c-.573,77.476,1.495,144.489,3.7,192.157C1067.919,862.368,1066.615,868.916,1065.385,876.054Zm85.772,22.263c-.018-.236-.028-.473-.045-.706C1151.129,897.845,1151.14,898.081,1151.157,898.317Zm-1.588-340.312c.1.313.205.619.309.928-.1-.275-.219-.546-.327-.817l.021-.094Zm-38.664,67.262c.011.118.011.236.021.354,0,0,22.726-31.973,29.888-72.225a100.03,100.03,0,0,0,9.689,7.545,132.881,132.881,0,0,1,4.824,26.267c-15.069,9.721-36.79,26.781-48.3,49.879C1108.191,633.157,1109.484,629.2,1110.905,625.268Zm-17.881,41.385c1.126,1.72,2.377,3.416,3.708,5.1q-.745,4.092-1.38,8.456c-.351-.254-.563-.4-.563-.4.146.372.306.737.459,1.105-.539,3.788-1,7.74-1.373,11.816Q1093.4,679.529,1093.025,666.653Zm37.114,94.836a91.228,91.228,0,0,0-34.716-31.386q-.527-11.187-.966-22.169l1.414-.775s.108-8.424,1.54-21.332c12.07,25.687,32.21,43.348,33.43,44.4.622,3.792,1.063,7.552,1.38,11.222Q1131.125,751.311,1130.138,761.489Zm-.031-35.31c.1.532.212,1.063.306,1.6l-.01-.021c-.1-.459-.223-.911-.337-1.366.014-.049.031-.09.045-.136Zm2.554,11.319a97.764,97.764,0,0,0-2.606-11.889l0-.035c.236-1.23.406-2.46.539-3.694,0-.035.014-.073.017-.108l0-.01c2.416-23.056-12.334-46.712-12.334-46.712a115.5,115.5,0,0,0,4.761,34.848c-8.059-13.443-19.712-23.507-25.183-27.8a289.763,289.763,0,0,1,6.826-36.5,238.183,238.183,0,0,0,51.738-46.309l.059.035C1146.886,639.037,1138.646,684.8,1132.661,737.5ZM1199.3,556.417l-.01.1c-.208.236-.427.469-.629.709C1198.877,556.956,1199.093,556.689,1199.3,556.417Zm-24.637,41.531-.007-.031.021-.014Zm1-2.69c-.083.149-.17.3-.254.448-.236.233-.448.448-.608.612-.132.32-.24.643-.348.966a5.414,5.414,0,0,0-.653-1.164q4.306-18.788,9.582-37.649a39.028,39.028,0,0,0,.535,19.427A138.768,138.768,0,0,0,1175.669,595.258Zm106.377-243.891c.365-.65.7-1.282,1.032-1.918.063-.014.5-.1,1.223-.285C1283.593,349.852,1282.849,350.578,1282.046,351.367Z" transform="translate(0)" fill="#013f04"/>
      <path id="Path_1624" data-name="Path 1624" d="M669.929,213.614c-4.591-9.644-5.3-9.644-5.985-9.644l-.532.056-.25.334c-.2.268-.667.893.667,5.5,8.41,25.342,10.221,55.668,10.005,79.1h14.628C683.729,249.675,676.143,226.661,669.929,213.614Z" transform="translate(129.858 622.828)" fill="#013f04"/>
    </g>
  </g>
</svg>