<svg xmlns="http://www.w3.org/2000/svg" xmlns:xlink="http://www.w3.org/1999/xlink" width="644" height="469" viewBox="0 0 644 469">
  <defs>
    <clipPath id="clip-path">
      <rect width="644" height="469" fill="none"/>
    </clipPath>
  </defs>
  <g id="Repeat_Grid_2" data-name="Repeat Grid 2" opacity="0.1" clip-path="url(#clip-path)">
    <g transform="translate(-1708 -252)">
      <circle id="Ellipse_3" data-name="Ellipse 3" cx="6" cy="6" r="6" transform="translate(1708 252)" fill="#d4d4d4"/>
    </g>
    <g transform="translate(-1668 -252)">
      <circle id="Ellipse_3-2" data-name="Ellipse 3" cx="6" cy="6" r="6" transform="translate(1708 252)" fill="#d4d4d4"/>
    </g>
    <g transform="translate(-1628 -252)">
      <circle id="Ellipse_3-3" data-name="Ellipse 3" cx="6" cy="6" r="6" transform="translate(1708 252)" fill="#d4d4d4"/>
    </g>
    <g transform="translate(-1588 -252)">
      <circle id="Ellipse_3-4" data-name="Ellipse 3" cx="6" cy="6" r="6" transform="translate(1708 252)" fill="#d4d4d4"/>
    </g>
    <g transform="translate(-1548 -252)">
      <circle id="Ellipse_3-5" data-name="Ellipse 3" cx="6" cy="6" r="6" transform="translate(1708 252)" fill="#d4d4d4"/>
    </g>
    <g transform="translate(-1508 -252)">
      <circle id="Ellipse_3-6" data-name="Ellipse 3" cx="6" cy="6" r="6" transform="translate(1708 252)" fill="#d4d4d4"/>
    </g>
    <g transform="translate(-1468 -252)">
      <circle id="Ellipse_3-7" data-name="Ellipse 3" cx="6" cy="6" r="6" transform="translate(1708 252)" fill="#d4d4d4"/>
    </g>
    <g transform="translate(-1428 -252)">
      <circle id="Ellipse_3-8" data-name="Ellipse 3" cx="6" cy="6" r="6" transform="translate(1708 252)" fill="#d4d4d4"/>
    </g>
    <g transform="translate(-1388 -252)">
      <circle id="Ellipse_3-9" data-name="Ellipse 3" cx="6" cy="6" r="6" transform="translate(1708 252)" fill="#d4d4d4"/>
    </g>
    <g transform="translate(-1348 -252)">
      <circle id="Ellipse_3-10" data-name="Ellipse 3" cx="6" cy="6" r="6" transform="translate(1708 252)" fill="#d4d4d4"/>
    </g>
    <g transform="translate(-1308 -252)">
      <circle id="Ellipse_3-11" data-name="Ellipse 3" cx="6" cy="6" r="6" transform="translate(1708 252)" fill="#d4d4d4"/>
    </g>
    <g transform="translate(-1268 -252)">
      <circle id="Ellipse_3-12" data-name="Ellipse 3" cx="6" cy="6" r="6" transform="translate(1708 252)" fill="#d4d4d4"/>
    </g>
    <g transform="translate(-1228 -252)">
      <circle id="Ellipse_3-13" data-name="Ellipse 3" cx="6" cy="6" r="6" transform="translate(1708 252)" fill="#d4d4d4"/>
    </g>
    <g transform="translate(-1188 -252)">
      <circle id="Ellipse_3-14" data-name="Ellipse 3" cx="6" cy="6" r="6" transform="translate(1708 252)" fill="#d4d4d4"/>
    </g>
    <g transform="translate(-1148 -252)">
      <circle id="Ellipse_3-15" data-name="Ellipse 3" cx="6" cy="6" r="6" transform="translate(1708 252)" fill="#d4d4d4"/>
    </g>
    <g transform="translate(-1108 -252)">
      <circle id="Ellipse_3-16" data-name="Ellipse 3" cx="6" cy="6" r="6" transform="translate(1708 252)" fill="#d4d4d4"/>
    </g>
    <g transform="translate(-1068 -252)">
      <circle id="Ellipse_3-17" data-name="Ellipse 3" cx="6" cy="6" r="6" transform="translate(1708 252)" fill="#d4d4d4"/>
    </g>
    <g transform="translate(-1708 -216)">
      <circle id="Ellipse_3-18" data-name="Ellipse 3" cx="6" cy="6" r="6" transform="translate(1708 252)" fill="#d4d4d4"/>
    </g>
    <g transform="translate(-1668 -216)">
      <circle id="Ellipse_3-19" data-name="Ellipse 3" cx="6" cy="6" r="6" transform="translate(1708 252)" fill="#d4d4d4"/>
    </g>
    <g transform="translate(-1628 -216)">
      <circle id="Ellipse_3-20" data-name="Ellipse 3" cx="6" cy="6" r="6" transform="translate(1708 252)" fill="#d4d4d4"/>
    </g>
    <g transform="translate(-1588 -216)">
      <circle id="Ellipse_3-21" data-name="Ellipse 3" cx="6" cy="6" r="6" transform="translate(1708 252)" fill="#d4d4d4"/>
    </g>
    <g transform="translate(-1548 -216)">
      <circle id="Ellipse_3-22" data-name="Ellipse 3" cx="6" cy="6" r="6" transform="translate(1708 252)" fill="#d4d4d4"/>
    </g>
    <g transform="translate(-1508 -216)">
      <circle id="Ellipse_3-23" data-name="Ellipse 3" cx="6" cy="6" r="6" transform="translate(1708 252)" fill="#d4d4d4"/>
    </g>
    <g transform="translate(-1468 -216)">
      <circle id="Ellipse_3-24" data-name="Ellipse 3" cx="6" cy="6" r="6" transform="translate(1708 252)" fill="#d4d4d4"/>
    </g>
    <g transform="translate(-1428 -216)">
      <circle id="Ellipse_3-25" data-name="Ellipse 3" cx="6" cy="6" r="6" transform="translate(1708 252)" fill="#d4d4d4"/>
    </g>
    <g transform="translate(-1388 -216)">
      <circle id="Ellipse_3-26" data-name="Ellipse 3" cx="6" cy="6" r="6" transform="translate(1708 252)" fill="#d4d4d4"/>
    </g>
    <g transform="translate(-1348 -216)">
      <circle id="Ellipse_3-27" data-name="Ellipse 3" cx="6" cy="6" r="6" transform="translate(1708 252)" fill="#d4d4d4"/>
    </g>
    <g transform="translate(-1308 -216)">
      <circle id="Ellipse_3-28" data-name="Ellipse 3" cx="6" cy="6" r="6" transform="translate(1708 252)" fill="#d4d4d4"/>
    </g>
    <g transform="translate(-1268 -216)">
      <circle id="Ellipse_3-29" data-name="Ellipse 3" cx="6" cy="6" r="6" transform="translate(1708 252)" fill="#d4d4d4"/>
    </g>
    <g transform="translate(-1228 -216)">
      <circle id="Ellipse_3-30" data-name="Ellipse 3" cx="6" cy="6" r="6" transform="translate(1708 252)" fill="#d4d4d4"/>
    </g>
    <g transform="translate(-1188 -216)">
      <circle id="Ellipse_3-31" data-name="Ellipse 3" cx="6" cy="6" r="6" transform="translate(1708 252)" fill="#d4d4d4"/>
    </g>
    <g transform="translate(-1148 -216)">
      <circle id="Ellipse_3-32" data-name="Ellipse 3" cx="6" cy="6" r="6" transform="translate(1708 252)" fill="#d4d4d4"/>
    </g>
    <g transform="translate(-1108 -216)">
      <circle id="Ellipse_3-33" data-name="Ellipse 3" cx="6" cy="6" r="6" transform="translate(1708 252)" fill="#d4d4d4"/>
    </g>
    <g transform="translate(-1068 -216)">
      <circle id="Ellipse_3-34" data-name="Ellipse 3" cx="6" cy="6" r="6" transform="translate(1708 252)" fill="#d4d4d4"/>
    </g>
    <g transform="translate(-1708 -180)">
      <circle id="Ellipse_3-35" data-name="Ellipse 3" cx="6" cy="6" r="6" transform="translate(1708 252)" fill="#d4d4d4"/>
    </g>
    <g transform="translate(-1668 -180)">
      <circle id="Ellipse_3-36" data-name="Ellipse 3" cx="6" cy="6" r="6" transform="translate(1708 252)" fill="#d4d4d4"/>
    </g>
    <g transform="translate(-1628 -180)">
      <circle id="Ellipse_3-37" data-name="Ellipse 3" cx="6" cy="6" r="6" transform="translate(1708 252)" fill="#d4d4d4"/>
    </g>
    <g transform="translate(-1588 -180)">
      <circle id="Ellipse_3-38" data-name="Ellipse 3" cx="6" cy="6" r="6" transform="translate(1708 252)" fill="#d4d4d4"/>
    </g>
    <g transform="translate(-1548 -180)">
      <circle id="Ellipse_3-39" data-name="Ellipse 3" cx="6" cy="6" r="6" transform="translate(1708 252)" fill="#d4d4d4"/>
    </g>
    <g transform="translate(-1508 -180)">
      <circle id="Ellipse_3-40" data-name="Ellipse 3" cx="6" cy="6" r="6" transform="translate(1708 252)" fill="#d4d4d4"/>
    </g>
    <g transform="translate(-1468 -180)">
      <circle id="Ellipse_3-41" data-name="Ellipse 3" cx="6" cy="6" r="6" transform="translate(1708 252)" fill="#d4d4d4"/>
    </g>
    <g transform="translate(-1428 -180)">
      <circle id="Ellipse_3-42" data-name="Ellipse 3" cx="6" cy="6" r="6" transform="translate(1708 252)" fill="#d4d4d4"/>
    </g>
    <g transform="translate(-1388 -180)">
      <circle id="Ellipse_3-43" data-name="Ellipse 3" cx="6" cy="6" r="6" transform="translate(1708 252)" fill="#d4d4d4"/>
    </g>
    <g transform="translate(-1348 -180)">
      <circle id="Ellipse_3-44" data-name="Ellipse 3" cx="6" cy="6" r="6" transform="translate(1708 252)" fill="#d4d4d4"/>
    </g>
    <g transform="translate(-1308 -180)">
      <circle id="Ellipse_3-45" data-name="Ellipse 3" cx="6" cy="6" r="6" transform="translate(1708 252)" fill="#d4d4d4"/>
    </g>
    <g transform="translate(-1268 -180)">
      <circle id="Ellipse_3-46" data-name="Ellipse 3" cx="6" cy="6" r="6" transform="translate(1708 252)" fill="#d4d4d4"/>
    </g>
    <g transform="translate(-1228 -180)">
      <circle id="Ellipse_3-47" data-name="Ellipse 3" cx="6" cy="6" r="6" transform="translate(1708 252)" fill="#d4d4d4"/>
    </g>
    <g transform="translate(-1188 -180)">
      <circle id="Ellipse_3-48" data-name="Ellipse 3" cx="6" cy="6" r="6" transform="translate(1708 252)" fill="#d4d4d4"/>
    </g>
    <g transform="translate(-1148 -180)">
      <circle id="Ellipse_3-49" data-name="Ellipse 3" cx="6" cy="6" r="6" transform="translate(1708 252)" fill="#d4d4d4"/>
    </g>
    <g transform="translate(-1108 -180)">
      <circle id="Ellipse_3-50" data-name="Ellipse 3" cx="6" cy="6" r="6" transform="translate(1708 252)" fill="#d4d4d4"/>
    </g>
    <g transform="translate(-1068 -180)">
      <circle id="Ellipse_3-51" data-name="Ellipse 3" cx="6" cy="6" r="6" transform="translate(1708 252)" fill="#d4d4d4"/>
    </g>
    <g transform="translate(-1708 -144)">
      <circle id="Ellipse_3-52" data-name="Ellipse 3" cx="6" cy="6" r="6" transform="translate(1708 252)" fill="#d4d4d4"/>
    </g>
    <g transform="translate(-1668 -144)">
      <circle id="Ellipse_3-53" data-name="Ellipse 3" cx="6" cy="6" r="6" transform="translate(1708 252)" fill="#d4d4d4"/>
    </g>
    <g transform="translate(-1628 -144)">
      <circle id="Ellipse_3-54" data-name="Ellipse 3" cx="6" cy="6" r="6" transform="translate(1708 252)" fill="#d4d4d4"/>
    </g>
    <g transform="translate(-1588 -144)">
      <circle id="Ellipse_3-55" data-name="Ellipse 3" cx="6" cy="6" r="6" transform="translate(1708 252)" fill="#d4d4d4"/>
    </g>
    <g transform="translate(-1548 -144)">
      <circle id="Ellipse_3-56" data-name="Ellipse 3" cx="6" cy="6" r="6" transform="translate(1708 252)" fill="#d4d4d4"/>
    </g>
    <g transform="translate(-1508 -144)">
      <circle id="Ellipse_3-57" data-name="Ellipse 3" cx="6" cy="6" r="6" transform="translate(1708 252)" fill="#d4d4d4"/>
    </g>
    <g transform="translate(-1468 -144)">
      <circle id="Ellipse_3-58" data-name="Ellipse 3" cx="6" cy="6" r="6" transform="translate(1708 252)" fill="#d4d4d4"/>
    </g>
    <g transform="translate(-1428 -144)">
      <circle id="Ellipse_3-59" data-name="Ellipse 3" cx="6" cy="6" r="6" transform="translate(1708 252)" fill="#d4d4d4"/>
    </g>
    <g transform="translate(-1388 -144)">
      <circle id="Ellipse_3-60" data-name="Ellipse 3" cx="6" cy="6" r="6" transform="translate(1708 252)" fill="#d4d4d4"/>
    </g>
    <g transform="translate(-1348 -144)">
      <circle id="Ellipse_3-61" data-name="Ellipse 3" cx="6" cy="6" r="6" transform="translate(1708 252)" fill="#d4d4d4"/>
    </g>
    <g transform="translate(-1308 -144)">
      <circle id="Ellipse_3-62" data-name="Ellipse 3" cx="6" cy="6" r="6" transform="translate(1708 252)" fill="#d4d4d4"/>
    </g>
    <g transform="translate(-1268 -144)">
      <circle id="Ellipse_3-63" data-name="Ellipse 3" cx="6" cy="6" r="6" transform="translate(1708 252)" fill="#d4d4d4"/>
    </g>
    <g transform="translate(-1228 -144)">
      <circle id="Ellipse_3-64" data-name="Ellipse 3" cx="6" cy="6" r="6" transform="translate(1708 252)" fill="#d4d4d4"/>
    </g>
    <g transform="translate(-1188 -144)">
      <circle id="Ellipse_3-65" data-name="Ellipse 3" cx="6" cy="6" r="6" transform="translate(1708 252)" fill="#d4d4d4"/>
    </g>
    <g transform="translate(-1148 -144)">
      <circle id="Ellipse_3-66" data-name="Ellipse 3" cx="6" cy="6" r="6" transform="translate(1708 252)" fill="#d4d4d4"/>
    </g>
    <g transform="translate(-1108 -144)">
      <circle id="Ellipse_3-67" data-name="Ellipse 3" cx="6" cy="6" r="6" transform="translate(1708 252)" fill="#d4d4d4"/>
    </g>
    <g transform="translate(-1068 -144)">
      <circle id="Ellipse_3-68" data-name="Ellipse 3" cx="6" cy="6" r="6" transform="translate(1708 252)" fill="#d4d4d4"/>
    </g>
    <g transform="translate(-1708 -108)">
      <circle id="Ellipse_3-69" data-name="Ellipse 3" cx="6" cy="6" r="6" transform="translate(1708 252)" fill="#d4d4d4"/>
    </g>
    <g transform="translate(-1668 -108)">
      <circle id="Ellipse_3-70" data-name="Ellipse 3" cx="6" cy="6" r="6" transform="translate(1708 252)" fill="#d4d4d4"/>
    </g>
    <g transform="translate(-1628 -108)">
      <circle id="Ellipse_3-71" data-name="Ellipse 3" cx="6" cy="6" r="6" transform="translate(1708 252)" fill="#d4d4d4"/>
    </g>
    <g transform="translate(-1588 -108)">
      <circle id="Ellipse_3-72" data-name="Ellipse 3" cx="6" cy="6" r="6" transform="translate(1708 252)" fill="#d4d4d4"/>
    </g>
    <g transform="translate(-1548 -108)">
      <circle id="Ellipse_3-73" data-name="Ellipse 3" cx="6" cy="6" r="6" transform="translate(1708 252)" fill="#d4d4d4"/>
    </g>
    <g transform="translate(-1508 -108)">
      <circle id="Ellipse_3-74" data-name="Ellipse 3" cx="6" cy="6" r="6" transform="translate(1708 252)" fill="#d4d4d4"/>
    </g>
    <g transform="translate(-1468 -108)">
      <circle id="Ellipse_3-75" data-name="Ellipse 3" cx="6" cy="6" r="6" transform="translate(1708 252)" fill="#d4d4d4"/>
    </g>
    <g transform="translate(-1428 -108)">
      <circle id="Ellipse_3-76" data-name="Ellipse 3" cx="6" cy="6" r="6" transform="translate(1708 252)" fill="#d4d4d4"/>
    </g>
    <g transform="translate(-1388 -108)">
      <circle id="Ellipse_3-77" data-name="Ellipse 3" cx="6" cy="6" r="6" transform="translate(1708 252)" fill="#d4d4d4"/>
    </g>
    <g transform="translate(-1348 -108)">
      <circle id="Ellipse_3-78" data-name="Ellipse 3" cx="6" cy="6" r="6" transform="translate(1708 252)" fill="#d4d4d4"/>
    </g>
    <g transform="translate(-1308 -108)">
      <circle id="Ellipse_3-79" data-name="Ellipse 3" cx="6" cy="6" r="6" transform="translate(1708 252)" fill="#d4d4d4"/>
    </g>
    <g transform="translate(-1268 -108)">
      <circle id="Ellipse_3-80" data-name="Ellipse 3" cx="6" cy="6" r="6" transform="translate(1708 252)" fill="#d4d4d4"/>
    </g>
    <g transform="translate(-1228 -108)">
      <circle id="Ellipse_3-81" data-name="Ellipse 3" cx="6" cy="6" r="6" transform="translate(1708 252)" fill="#d4d4d4"/>
    </g>
    <g transform="translate(-1188 -108)">
      <circle id="Ellipse_3-82" data-name="Ellipse 3" cx="6" cy="6" r="6" transform="translate(1708 252)" fill="#d4d4d4"/>
    </g>
    <g transform="translate(-1148 -108)">
      <circle id="Ellipse_3-83" data-name="Ellipse 3" cx="6" cy="6" r="6" transform="translate(1708 252)" fill="#d4d4d4"/>
    </g>
    <g transform="translate(-1108 -108)">
      <circle id="Ellipse_3-84" data-name="Ellipse 3" cx="6" cy="6" r="6" transform="translate(1708 252)" fill="#d4d4d4"/>
    </g>
    <g transform="translate(-1068 -108)">
      <circle id="Ellipse_3-85" data-name="Ellipse 3" cx="6" cy="6" r="6" transform="translate(1708 252)" fill="#d4d4d4"/>
    </g>
    <g transform="translate(-1708 -72)">
      <circle id="Ellipse_3-86" data-name="Ellipse 3" cx="6" cy="6" r="6" transform="translate(1708 252)" fill="#d4d4d4"/>
    </g>
    <g transform="translate(-1668 -72)">
      <circle id="Ellipse_3-87" data-name="Ellipse 3" cx="6" cy="6" r="6" transform="translate(1708 252)" fill="#d4d4d4"/>
    </g>
    <g transform="translate(-1628 -72)">
      <circle id="Ellipse_3-88" data-name="Ellipse 3" cx="6" cy="6" r="6" transform="translate(1708 252)" fill="#d4d4d4"/>
    </g>
    <g transform="translate(-1588 -72)">
      <circle id="Ellipse_3-89" data-name="Ellipse 3" cx="6" cy="6" r="6" transform="translate(1708 252)" fill="#d4d4d4"/>
    </g>
    <g transform="translate(-1548 -72)">
      <circle id="Ellipse_3-90" data-name="Ellipse 3" cx="6" cy="6" r="6" transform="translate(1708 252)" fill="#d4d4d4"/>
    </g>
    <g transform="translate(-1508 -72)">
      <circle id="Ellipse_3-91" data-name="Ellipse 3" cx="6" cy="6" r="6" transform="translate(1708 252)" fill="#d4d4d4"/>
    </g>
    <g transform="translate(-1468 -72)">
      <circle id="Ellipse_3-92" data-name="Ellipse 3" cx="6" cy="6" r="6" transform="translate(1708 252)" fill="#d4d4d4"/>
    </g>
    <g transform="translate(-1428 -72)">
      <circle id="Ellipse_3-93" data-name="Ellipse 3" cx="6" cy="6" r="6" transform="translate(1708 252)" fill="#d4d4d4"/>
    </g>
    <g transform="translate(-1388 -72)">
      <circle id="Ellipse_3-94" data-name="Ellipse 3" cx="6" cy="6" r="6" transform="translate(1708 252)" fill="#d4d4d4"/>
    </g>
    <g transform="translate(-1348 -72)">
      <circle id="Ellipse_3-95" data-name="Ellipse 3" cx="6" cy="6" r="6" transform="translate(1708 252)" fill="#d4d4d4"/>
    </g>
    <g transform="translate(-1308 -72)">
      <circle id="Ellipse_3-96" data-name="Ellipse 3" cx="6" cy="6" r="6" transform="translate(1708 252)" fill="#d4d4d4"/>
    </g>
    <g transform="translate(-1268 -72)">
      <circle id="Ellipse_3-97" data-name="Ellipse 3" cx="6" cy="6" r="6" transform="translate(1708 252)" fill="#d4d4d4"/>
    </g>
    <g transform="translate(-1228 -72)">
      <circle id="Ellipse_3-98" data-name="Ellipse 3" cx="6" cy="6" r="6" transform="translate(1708 252)" fill="#d4d4d4"/>
    </g>
    <g transform="translate(-1188 -72)">
      <circle id="Ellipse_3-99" data-name="Ellipse 3" cx="6" cy="6" r="6" transform="translate(1708 252)" fill="#d4d4d4"/>
    </g>
    <g transform="translate(-1148 -72)">
      <circle id="Ellipse_3-100" data-name="Ellipse 3" cx="6" cy="6" r="6" transform="translate(1708 252)" fill="#d4d4d4"/>
    </g>
    <g transform="translate(-1108 -72)">
      <circle id="Ellipse_3-101" data-name="Ellipse 3" cx="6" cy="6" r="6" transform="translate(1708 252)" fill="#d4d4d4"/>
    </g>
    <g transform="translate(-1068 -72)">
      <circle id="Ellipse_3-102" data-name="Ellipse 3" cx="6" cy="6" r="6" transform="translate(1708 252)" fill="#d4d4d4"/>
    </g>
    <g transform="translate(-1708 -36)">
      <circle id="Ellipse_3-103" data-name="Ellipse 3" cx="6" cy="6" r="6" transform="translate(1708 252)" fill="#d4d4d4"/>
    </g>
    <g transform="translate(-1668 -36)">
      <circle id="Ellipse_3-104" data-name="Ellipse 3" cx="6" cy="6" r="6" transform="translate(1708 252)" fill="#d4d4d4"/>
    </g>
    <g transform="translate(-1628 -36)">
      <circle id="Ellipse_3-105" data-name="Ellipse 3" cx="6" cy="6" r="6" transform="translate(1708 252)" fill="#d4d4d4"/>
    </g>
    <g transform="translate(-1588 -36)">
      <circle id="Ellipse_3-106" data-name="Ellipse 3" cx="6" cy="6" r="6" transform="translate(1708 252)" fill="#d4d4d4"/>
    </g>
    <g transform="translate(-1548 -36)">
      <circle id="Ellipse_3-107" data-name="Ellipse 3" cx="6" cy="6" r="6" transform="translate(1708 252)" fill="#d4d4d4"/>
    </g>
    <g transform="translate(-1508 -36)">
      <circle id="Ellipse_3-108" data-name="Ellipse 3" cx="6" cy="6" r="6" transform="translate(1708 252)" fill="#d4d4d4"/>
    </g>
    <g transform="translate(-1468 -36)">
      <circle id="Ellipse_3-109" data-name="Ellipse 3" cx="6" cy="6" r="6" transform="translate(1708 252)" fill="#d4d4d4"/>
    </g>
    <g transform="translate(-1428 -36)">
      <circle id="Ellipse_3-110" data-name="Ellipse 3" cx="6" cy="6" r="6" transform="translate(1708 252)" fill="#d4d4d4"/>
    </g>
    <g transform="translate(-1388 -36)">
      <circle id="Ellipse_3-111" data-name="Ellipse 3" cx="6" cy="6" r="6" transform="translate(1708 252)" fill="#d4d4d4"/>
    </g>
    <g transform="translate(-1348 -36)">
      <circle id="Ellipse_3-112" data-name="Ellipse 3" cx="6" cy="6" r="6" transform="translate(1708 252)" fill="#d4d4d4"/>
    </g>
    <g transform="translate(-1308 -36)">
      <circle id="Ellipse_3-113" data-name="Ellipse 3" cx="6" cy="6" r="6" transform="translate(1708 252)" fill="#d4d4d4"/>
    </g>
    <g transform="translate(-1268 -36)">
      <circle id="Ellipse_3-114" data-name="Ellipse 3" cx="6" cy="6" r="6" transform="translate(1708 252)" fill="#d4d4d4"/>
    </g>
    <g transform="translate(-1228 -36)">
      <circle id="Ellipse_3-115" data-name="Ellipse 3" cx="6" cy="6" r="6" transform="translate(1708 252)" fill="#d4d4d4"/>
    </g>
    <g transform="translate(-1188 -36)">
      <circle id="Ellipse_3-116" data-name="Ellipse 3" cx="6" cy="6" r="6" transform="translate(1708 252)" fill="#d4d4d4"/>
    </g>
    <g transform="translate(-1148 -36)">
      <circle id="Ellipse_3-117" data-name="Ellipse 3" cx="6" cy="6" r="6" transform="translate(1708 252)" fill="#d4d4d4"/>
    </g>
    <g transform="translate(-1108 -36)">
      <circle id="Ellipse_3-118" data-name="Ellipse 3" cx="6" cy="6" r="6" transform="translate(1708 252)" fill="#d4d4d4"/>
    </g>
    <g transform="translate(-1068 -36)">
      <circle id="Ellipse_3-119" data-name="Ellipse 3" cx="6" cy="6" r="6" transform="translate(1708 252)" fill="#d4d4d4"/>
    </g>
    <g transform="translate(-1708)">
      <circle id="Ellipse_3-120" data-name="Ellipse 3" cx="6" cy="6" r="6" transform="translate(1708 252)" fill="#d4d4d4"/>
    </g>
    <g transform="translate(-1668)">
      <circle id="Ellipse_3-121" data-name="Ellipse 3" cx="6" cy="6" r="6" transform="translate(1708 252)" fill="#d4d4d4"/>
    </g>
    <g transform="translate(-1628)">
      <circle id="Ellipse_3-122" data-name="Ellipse 3" cx="6" cy="6" r="6" transform="translate(1708 252)" fill="#d4d4d4"/>
    </g>
    <g transform="translate(-1588)">
      <circle id="Ellipse_3-123" data-name="Ellipse 3" cx="6" cy="6" r="6" transform="translate(1708 252)" fill="#d4d4d4"/>
    </g>
    <g transform="translate(-1548)">
      <circle id="Ellipse_3-124" data-name="Ellipse 3" cx="6" cy="6" r="6" transform="translate(1708 252)" fill="#d4d4d4"/>
    </g>
    <g transform="translate(-1508)">
      <circle id="Ellipse_3-125" data-name="Ellipse 3" cx="6" cy="6" r="6" transform="translate(1708 252)" fill="#d4d4d4"/>
    </g>
    <g transform="translate(-1468)">
      <circle id="Ellipse_3-126" data-name="Ellipse 3" cx="6" cy="6" r="6" transform="translate(1708 252)" fill="#d4d4d4"/>
    </g>
    <g transform="translate(-1428)">
      <circle id="Ellipse_3-127" data-name="Ellipse 3" cx="6" cy="6" r="6" transform="translate(1708 252)" fill="#d4d4d4"/>
    </g>
    <g transform="translate(-1388)">
      <circle id="Ellipse_3-128" data-name="Ellipse 3" cx="6" cy="6" r="6" transform="translate(1708 252)" fill="#d4d4d4"/>
    </g>
    <g transform="translate(-1348)">
      <circle id="Ellipse_3-129" data-name="Ellipse 3" cx="6" cy="6" r="6" transform="translate(1708 252)" fill="#d4d4d4"/>
    </g>
    <g transform="translate(-1308)">
      <circle id="Ellipse_3-130" data-name="Ellipse 3" cx="6" cy="6" r="6" transform="translate(1708 252)" fill="#d4d4d4"/>
    </g>
    <g transform="translate(-1268)">
      <circle id="Ellipse_3-131" data-name="Ellipse 3" cx="6" cy="6" r="6" transform="translate(1708 252)" fill="#d4d4d4"/>
    </g>
    <g transform="translate(-1228)">
      <circle id="Ellipse_3-132" data-name="Ellipse 3" cx="6" cy="6" r="6" transform="translate(1708 252)" fill="#d4d4d4"/>
    </g>
    <g transform="translate(-1188)">
      <circle id="Ellipse_3-133" data-name="Ellipse 3" cx="6" cy="6" r="6" transform="translate(1708 252)" fill="#d4d4d4"/>
    </g>
    <g transform="translate(-1148)">
      <circle id="Ellipse_3-134" data-name="Ellipse 3" cx="6" cy="6" r="6" transform="translate(1708 252)" fill="#d4d4d4"/>
    </g>
    <g transform="translate(-1108)">
      <circle id="Ellipse_3-135" data-name="Ellipse 3" cx="6" cy="6" r="6" transform="translate(1708 252)" fill="#d4d4d4"/>
    </g>
    <g transform="translate(-1068)">
      <circle id="Ellipse_3-136" data-name="Ellipse 3" cx="6" cy="6" r="6" transform="translate(1708 252)" fill="#d4d4d4"/>
    </g>
    <g transform="translate(-1708 36)">
      <circle id="Ellipse_3-137" data-name="Ellipse 3" cx="6" cy="6" r="6" transform="translate(1708 252)" fill="#d4d4d4"/>
    </g>
    <g transform="translate(-1668 36)">
      <circle id="Ellipse_3-138" data-name="Ellipse 3" cx="6" cy="6" r="6" transform="translate(1708 252)" fill="#d4d4d4"/>
    </g>
    <g transform="translate(-1628 36)">
      <circle id="Ellipse_3-139" data-name="Ellipse 3" cx="6" cy="6" r="6" transform="translate(1708 252)" fill="#d4d4d4"/>
    </g>
    <g transform="translate(-1588 36)">
      <circle id="Ellipse_3-140" data-name="Ellipse 3" cx="6" cy="6" r="6" transform="translate(1708 252)" fill="#d4d4d4"/>
    </g>
    <g transform="translate(-1548 36)">
      <circle id="Ellipse_3-141" data-name="Ellipse 3" cx="6" cy="6" r="6" transform="translate(1708 252)" fill="#d4d4d4"/>
    </g>
    <g transform="translate(-1508 36)">
      <circle id="Ellipse_3-142" data-name="Ellipse 3" cx="6" cy="6" r="6" transform="translate(1708 252)" fill="#d4d4d4"/>
    </g>
    <g transform="translate(-1468 36)">
      <circle id="Ellipse_3-143" data-name="Ellipse 3" cx="6" cy="6" r="6" transform="translate(1708 252)" fill="#d4d4d4"/>
    </g>
    <g transform="translate(-1428 36)">
      <circle id="Ellipse_3-144" data-name="Ellipse 3" cx="6" cy="6" r="6" transform="translate(1708 252)" fill="#d4d4d4"/>
    </g>
    <g transform="translate(-1388 36)">
      <circle id="Ellipse_3-145" data-name="Ellipse 3" cx="6" cy="6" r="6" transform="translate(1708 252)" fill="#d4d4d4"/>
    </g>
    <g transform="translate(-1348 36)">
      <circle id="Ellipse_3-146" data-name="Ellipse 3" cx="6" cy="6" r="6" transform="translate(1708 252)" fill="#d4d4d4"/>
    </g>
    <g transform="translate(-1308 36)">
      <circle id="Ellipse_3-147" data-name="Ellipse 3" cx="6" cy="6" r="6" transform="translate(1708 252)" fill="#d4d4d4"/>
    </g>
    <g transform="translate(-1268 36)">
      <circle id="Ellipse_3-148" data-name="Ellipse 3" cx="6" cy="6" r="6" transform="translate(1708 252)" fill="#d4d4d4"/>
    </g>
    <g transform="translate(-1228 36)">
      <circle id="Ellipse_3-149" data-name="Ellipse 3" cx="6" cy="6" r="6" transform="translate(1708 252)" fill="#d4d4d4"/>
    </g>
    <g transform="translate(-1188 36)">
      <circle id="Ellipse_3-150" data-name="Ellipse 3" cx="6" cy="6" r="6" transform="translate(1708 252)" fill="#d4d4d4"/>
    </g>
    <g transform="translate(-1148 36)">
      <circle id="Ellipse_3-151" data-name="Ellipse 3" cx="6" cy="6" r="6" transform="translate(1708 252)" fill="#d4d4d4"/>
    </g>
    <g transform="translate(-1108 36)">
      <circle id="Ellipse_3-152" data-name="Ellipse 3" cx="6" cy="6" r="6" transform="translate(1708 252)" fill="#d4d4d4"/>
    </g>
    <g transform="translate(-1068 36)">
      <circle id="Ellipse_3-153" data-name="Ellipse 3" cx="6" cy="6" r="6" transform="translate(1708 252)" fill="#d4d4d4"/>
    </g>
    <g transform="translate(-1708 72)">
      <circle id="Ellipse_3-154" data-name="Ellipse 3" cx="6" cy="6" r="6" transform="translate(1708 252)" fill="#d4d4d4"/>
    </g>
    <g transform="translate(-1668 72)">
      <circle id="Ellipse_3-155" data-name="Ellipse 3" cx="6" cy="6" r="6" transform="translate(1708 252)" fill="#d4d4d4"/>
    </g>
    <g transform="translate(-1628 72)">
      <circle id="Ellipse_3-156" data-name="Ellipse 3" cx="6" cy="6" r="6" transform="translate(1708 252)" fill="#d4d4d4"/>
    </g>
    <g transform="translate(-1588 72)">
      <circle id="Ellipse_3-157" data-name="Ellipse 3" cx="6" cy="6" r="6" transform="translate(1708 252)" fill="#d4d4d4"/>
    </g>
    <g transform="translate(-1548 72)">
      <circle id="Ellipse_3-158" data-name="Ellipse 3" cx="6" cy="6" r="6" transform="translate(1708 252)" fill="#d4d4d4"/>
    </g>
    <g transform="translate(-1508 72)">
      <circle id="Ellipse_3-159" data-name="Ellipse 3" cx="6" cy="6" r="6" transform="translate(1708 252)" fill="#d4d4d4"/>
    </g>
    <g transform="translate(-1468 72)">
      <circle id="Ellipse_3-160" data-name="Ellipse 3" cx="6" cy="6" r="6" transform="translate(1708 252)" fill="#d4d4d4"/>
    </g>
    <g transform="translate(-1428 72)">
      <circle id="Ellipse_3-161" data-name="Ellipse 3" cx="6" cy="6" r="6" transform="translate(1708 252)" fill="#d4d4d4"/>
    </g>
    <g transform="translate(-1388 72)">
      <circle id="Ellipse_3-162" data-name="Ellipse 3" cx="6" cy="6" r="6" transform="translate(1708 252)" fill="#d4d4d4"/>
    </g>
    <g transform="translate(-1348 72)">
      <circle id="Ellipse_3-163" data-name="Ellipse 3" cx="6" cy="6" r="6" transform="translate(1708 252)" fill="#d4d4d4"/>
    </g>
    <g transform="translate(-1308 72)">
      <circle id="Ellipse_3-164" data-name="Ellipse 3" cx="6" cy="6" r="6" transform="translate(1708 252)" fill="#d4d4d4"/>
    </g>
    <g transform="translate(-1268 72)">
      <circle id="Ellipse_3-165" data-name="Ellipse 3" cx="6" cy="6" r="6" transform="translate(1708 252)" fill="#d4d4d4"/>
    </g>
    <g transform="translate(-1228 72)">
      <circle id="Ellipse_3-166" data-name="Ellipse 3" cx="6" cy="6" r="6" transform="translate(1708 252)" fill="#d4d4d4"/>
    </g>
    <g transform="translate(-1188 72)">
      <circle id="Ellipse_3-167" data-name="Ellipse 3" cx="6" cy="6" r="6" transform="translate(1708 252)" fill="#d4d4d4"/>
    </g>
    <g transform="translate(-1148 72)">
      <circle id="Ellipse_3-168" data-name="Ellipse 3" cx="6" cy="6" r="6" transform="translate(1708 252)" fill="#d4d4d4"/>
    </g>
    <g transform="translate(-1108 72)">
      <circle id="Ellipse_3-169" data-name="Ellipse 3" cx="6" cy="6" r="6" transform="translate(1708 252)" fill="#d4d4d4"/>
    </g>
    <g transform="translate(-1068 72)">
      <circle id="Ellipse_3-170" data-name="Ellipse 3" cx="6" cy="6" r="6" transform="translate(1708 252)" fill="#d4d4d4"/>
    </g>
    <g transform="translate(-1708 108)">
      <circle id="Ellipse_3-171" data-name="Ellipse 3" cx="6" cy="6" r="6" transform="translate(1708 252)" fill="#d4d4d4"/>
    </g>
    <g transform="translate(-1668 108)">
      <circle id="Ellipse_3-172" data-name="Ellipse 3" cx="6" cy="6" r="6" transform="translate(1708 252)" fill="#d4d4d4"/>
    </g>
    <g transform="translate(-1628 108)">
      <circle id="Ellipse_3-173" data-name="Ellipse 3" cx="6" cy="6" r="6" transform="translate(1708 252)" fill="#d4d4d4"/>
    </g>
    <g transform="translate(-1588 108)">
      <circle id="Ellipse_3-174" data-name="Ellipse 3" cx="6" cy="6" r="6" transform="translate(1708 252)" fill="#d4d4d4"/>
    </g>
    <g transform="translate(-1548 108)">
      <circle id="Ellipse_3-175" data-name="Ellipse 3" cx="6" cy="6" r="6" transform="translate(1708 252)" fill="#d4d4d4"/>
    </g>
    <g transform="translate(-1508 108)">
      <circle id="Ellipse_3-176" data-name="Ellipse 3" cx="6" cy="6" r="6" transform="translate(1708 252)" fill="#d4d4d4"/>
    </g>
    <g transform="translate(-1468 108)">
      <circle id="Ellipse_3-177" data-name="Ellipse 3" cx="6" cy="6" r="6" transform="translate(1708 252)" fill="#d4d4d4"/>
    </g>
    <g transform="translate(-1428 108)">
      <circle id="Ellipse_3-178" data-name="Ellipse 3" cx="6" cy="6" r="6" transform="translate(1708 252)" fill="#d4d4d4"/>
    </g>
    <g transform="translate(-1388 108)">
      <circle id="Ellipse_3-179" data-name="Ellipse 3" cx="6" cy="6" r="6" transform="translate(1708 252)" fill="#d4d4d4"/>
    </g>
    <g transform="translate(-1348 108)">
      <circle id="Ellipse_3-180" data-name="Ellipse 3" cx="6" cy="6" r="6" transform="translate(1708 252)" fill="#d4d4d4"/>
    </g>
    <g transform="translate(-1308 108)">
      <circle id="Ellipse_3-181" data-name="Ellipse 3" cx="6" cy="6" r="6" transform="translate(1708 252)" fill="#d4d4d4"/>
    </g>
    <g transform="translate(-1268 108)">
      <circle id="Ellipse_3-182" data-name="Ellipse 3" cx="6" cy="6" r="6" transform="translate(1708 252)" fill="#d4d4d4"/>
    </g>
    <g transform="translate(-1228 108)">
      <circle id="Ellipse_3-183" data-name="Ellipse 3" cx="6" cy="6" r="6" transform="translate(1708 252)" fill="#d4d4d4"/>
    </g>
    <g transform="translate(-1188 108)">
      <circle id="Ellipse_3-184" data-name="Ellipse 3" cx="6" cy="6" r="6" transform="translate(1708 252)" fill="#d4d4d4"/>
    </g>
    <g transform="translate(-1148 108)">
      <circle id="Ellipse_3-185" data-name="Ellipse 3" cx="6" cy="6" r="6" transform="translate(1708 252)" fill="#d4d4d4"/>
    </g>
    <g transform="translate(-1108 108)">
      <circle id="Ellipse_3-186" data-name="Ellipse 3" cx="6" cy="6" r="6" transform="translate(1708 252)" fill="#d4d4d4"/>
    </g>
    <g transform="translate(-1068 108)">
      <circle id="Ellipse_3-187" data-name="Ellipse 3" cx="6" cy="6" r="6" transform="translate(1708 252)" fill="#d4d4d4"/>
    </g>
    <g transform="translate(-1708 144)">
      <circle id="Ellipse_3-188" data-name="Ellipse 3" cx="6" cy="6" r="6" transform="translate(1708 252)" fill="#d4d4d4"/>
    </g>
    <g transform="translate(-1668 144)">
      <circle id="Ellipse_3-189" data-name="Ellipse 3" cx="6" cy="6" r="6" transform="translate(1708 252)" fill="#d4d4d4"/>
    </g>
    <g transform="translate(-1628 144)">
      <circle id="Ellipse_3-190" data-name="Ellipse 3" cx="6" cy="6" r="6" transform="translate(1708 252)" fill="#d4d4d4"/>
    </g>
    <g transform="translate(-1588 144)">
      <circle id="Ellipse_3-191" data-name="Ellipse 3" cx="6" cy="6" r="6" transform="translate(1708 252)" fill="#d4d4d4"/>
    </g>
    <g transform="translate(-1548 144)">
      <circle id="Ellipse_3-192" data-name="Ellipse 3" cx="6" cy="6" r="6" transform="translate(1708 252)" fill="#d4d4d4"/>
    </g>
    <g transform="translate(-1508 144)">
      <circle id="Ellipse_3-193" data-name="Ellipse 3" cx="6" cy="6" r="6" transform="translate(1708 252)" fill="#d4d4d4"/>
    </g>
    <g transform="translate(-1468 144)">
      <circle id="Ellipse_3-194" data-name="Ellipse 3" cx="6" cy="6" r="6" transform="translate(1708 252)" fill="#d4d4d4"/>
    </g>
    <g transform="translate(-1428 144)">
      <circle id="Ellipse_3-195" data-name="Ellipse 3" cx="6" cy="6" r="6" transform="translate(1708 252)" fill="#d4d4d4"/>
    </g>
    <g transform="translate(-1388 144)">
      <circle id="Ellipse_3-196" data-name="Ellipse 3" cx="6" cy="6" r="6" transform="translate(1708 252)" fill="#d4d4d4"/>
    </g>
    <g transform="translate(-1348 144)">
      <circle id="Ellipse_3-197" data-name="Ellipse 3" cx="6" cy="6" r="6" transform="translate(1708 252)" fill="#d4d4d4"/>
    </g>
    <g transform="translate(-1308 144)">
      <circle id="Ellipse_3-198" data-name="Ellipse 3" cx="6" cy="6" r="6" transform="translate(1708 252)" fill="#d4d4d4"/>
    </g>
    <g transform="translate(-1268 144)">
      <circle id="Ellipse_3-199" data-name="Ellipse 3" cx="6" cy="6" r="6" transform="translate(1708 252)" fill="#d4d4d4"/>
    </g>
    <g transform="translate(-1228 144)">
      <circle id="Ellipse_3-200" data-name="Ellipse 3" cx="6" cy="6" r="6" transform="translate(1708 252)" fill="#d4d4d4"/>
    </g>
    <g transform="translate(-1188 144)">
      <circle id="Ellipse_3-201" data-name="Ellipse 3" cx="6" cy="6" r="6" transform="translate(1708 252)" fill="#d4d4d4"/>
    </g>
    <g transform="translate(-1148 144)">
      <circle id="Ellipse_3-202" data-name="Ellipse 3" cx="6" cy="6" r="6" transform="translate(1708 252)" fill="#d4d4d4"/>
    </g>
    <g transform="translate(-1108 144)">
      <circle id="Ellipse_3-203" data-name="Ellipse 3" cx="6" cy="6" r="6" transform="translate(1708 252)" fill="#d4d4d4"/>
    </g>
    <g transform="translate(-1068 144)">
      <circle id="Ellipse_3-204" data-name="Ellipse 3" cx="6" cy="6" r="6" transform="translate(1708 252)" fill="#d4d4d4"/>
    </g>
    <g transform="translate(-1708 180)">
      <circle id="Ellipse_3-205" data-name="Ellipse 3" cx="6" cy="6" r="6" transform="translate(1708 252)" fill="#d4d4d4"/>
    </g>
    <g transform="translate(-1668 180)">
      <circle id="Ellipse_3-206" data-name="Ellipse 3" cx="6" cy="6" r="6" transform="translate(1708 252)" fill="#d4d4d4"/>
    </g>
    <g transform="translate(-1628 180)">
      <circle id="Ellipse_3-207" data-name="Ellipse 3" cx="6" cy="6" r="6" transform="translate(1708 252)" fill="#d4d4d4"/>
    </g>
    <g transform="translate(-1588 180)">
      <circle id="Ellipse_3-208" data-name="Ellipse 3" cx="6" cy="6" r="6" transform="translate(1708 252)" fill="#d4d4d4"/>
    </g>
    <g transform="translate(-1548 180)">
      <circle id="Ellipse_3-209" data-name="Ellipse 3" cx="6" cy="6" r="6" transform="translate(1708 252)" fill="#d4d4d4"/>
    </g>
    <g transform="translate(-1508 180)">
      <circle id="Ellipse_3-210" data-name="Ellipse 3" cx="6" cy="6" r="6" transform="translate(1708 252)" fill="#d4d4d4"/>
    </g>
    <g transform="translate(-1468 180)">
      <circle id="Ellipse_3-211" data-name="Ellipse 3" cx="6" cy="6" r="6" transform="translate(1708 252)" fill="#d4d4d4"/>
    </g>
    <g transform="translate(-1428 180)">
      <circle id="Ellipse_3-212" data-name="Ellipse 3" cx="6" cy="6" r="6" transform="translate(1708 252)" fill="#d4d4d4"/>
    </g>
    <g transform="translate(-1388 180)">
      <circle id="Ellipse_3-213" data-name="Ellipse 3" cx="6" cy="6" r="6" transform="translate(1708 252)" fill="#d4d4d4"/>
    </g>
    <g transform="translate(-1348 180)">
      <circle id="Ellipse_3-214" data-name="Ellipse 3" cx="6" cy="6" r="6" transform="translate(1708 252)" fill="#d4d4d4"/>
    </g>
    <g transform="translate(-1308 180)">
      <circle id="Ellipse_3-215" data-name="Ellipse 3" cx="6" cy="6" r="6" transform="translate(1708 252)" fill="#d4d4d4"/>
    </g>
    <g transform="translate(-1268 180)">
      <circle id="Ellipse_3-216" data-name="Ellipse 3" cx="6" cy="6" r="6" transform="translate(1708 252)" fill="#d4d4d4"/>
    </g>
    <g transform="translate(-1228 180)">
      <circle id="Ellipse_3-217" data-name="Ellipse 3" cx="6" cy="6" r="6" transform="translate(1708 252)" fill="#d4d4d4"/>
    </g>
    <g transform="translate(-1188 180)">
      <circle id="Ellipse_3-218" data-name="Ellipse 3" cx="6" cy="6" r="6" transform="translate(1708 252)" fill="#d4d4d4"/>
    </g>
    <g transform="translate(-1148 180)">
      <circle id="Ellipse_3-219" data-name="Ellipse 3" cx="6" cy="6" r="6" transform="translate(1708 252)" fill="#d4d4d4"/>
    </g>
    <g transform="translate(-1108 180)">
      <circle id="Ellipse_3-220" data-name="Ellipse 3" cx="6" cy="6" r="6" transform="translate(1708 252)" fill="#d4d4d4"/>
    </g>
    <g transform="translate(-1068 180)">
      <circle id="Ellipse_3-221" data-name="Ellipse 3" cx="6" cy="6" r="6" transform="translate(1708 252)" fill="#d4d4d4"/>
    </g>
    <g transform="translate(-1708 216)">
      <circle id="Ellipse_3-222" data-name="Ellipse 3" cx="6" cy="6" r="6" transform="translate(1708 252)" fill="#d4d4d4"/>
    </g>
    <g transform="translate(-1668 216)">
      <circle id="Ellipse_3-223" data-name="Ellipse 3" cx="6" cy="6" r="6" transform="translate(1708 252)" fill="#d4d4d4"/>
    </g>
    <g transform="translate(-1628 216)">
      <circle id="Ellipse_3-224" data-name="Ellipse 3" cx="6" cy="6" r="6" transform="translate(1708 252)" fill="#d4d4d4"/>
    </g>
    <g transform="translate(-1588 216)">
      <circle id="Ellipse_3-225" data-name="Ellipse 3" cx="6" cy="6" r="6" transform="translate(1708 252)" fill="#d4d4d4"/>
    </g>
    <g transform="translate(-1548 216)">
      <circle id="Ellipse_3-226" data-name="Ellipse 3" cx="6" cy="6" r="6" transform="translate(1708 252)" fill="#d4d4d4"/>
    </g>
    <g transform="translate(-1508 216)">
      <circle id="Ellipse_3-227" data-name="Ellipse 3" cx="6" cy="6" r="6" transform="translate(1708 252)" fill="#d4d4d4"/>
    </g>
    <g transform="translate(-1468 216)">
      <circle id="Ellipse_3-228" data-name="Ellipse 3" cx="6" cy="6" r="6" transform="translate(1708 252)" fill="#d4d4d4"/>
    </g>
    <g transform="translate(-1428 216)">
      <circle id="Ellipse_3-229" data-name="Ellipse 3" cx="6" cy="6" r="6" transform="translate(1708 252)" fill="#d4d4d4"/>
    </g>
    <g transform="translate(-1388 216)">
      <circle id="Ellipse_3-230" data-name="Ellipse 3" cx="6" cy="6" r="6" transform="translate(1708 252)" fill="#d4d4d4"/>
    </g>
    <g transform="translate(-1348 216)">
      <circle id="Ellipse_3-231" data-name="Ellipse 3" cx="6" cy="6" r="6" transform="translate(1708 252)" fill="#d4d4d4"/>
    </g>
    <g transform="translate(-1308 216)">
      <circle id="Ellipse_3-232" data-name="Ellipse 3" cx="6" cy="6" r="6" transform="translate(1708 252)" fill="#d4d4d4"/>
    </g>
    <g transform="translate(-1268 216)">
      <circle id="Ellipse_3-233" data-name="Ellipse 3" cx="6" cy="6" r="6" transform="translate(1708 252)" fill="#d4d4d4"/>
    </g>
    <g transform="translate(-1228 216)">
      <circle id="Ellipse_3-234" data-name="Ellipse 3" cx="6" cy="6" r="6" transform="translate(1708 252)" fill="#d4d4d4"/>
    </g>
    <g transform="translate(-1188 216)">
      <circle id="Ellipse_3-235" data-name="Ellipse 3" cx="6" cy="6" r="6" transform="translate(1708 252)" fill="#d4d4d4"/>
    </g>
    <g transform="translate(-1148 216)">
      <circle id="Ellipse_3-236" data-name="Ellipse 3" cx="6" cy="6" r="6" transform="translate(1708 252)" fill="#d4d4d4"/>
    </g>
    <g transform="translate(-1108 216)">
      <circle id="Ellipse_3-237" data-name="Ellipse 3" cx="6" cy="6" r="6" transform="translate(1708 252)" fill="#d4d4d4"/>
    </g>
    <g transform="translate(-1068 216)">
      <circle id="Ellipse_3-238" data-name="Ellipse 3" cx="6" cy="6" r="6" transform="translate(1708 252)" fill="#d4d4d4"/>
    </g>
  </g>
</svg>
