<svg xmlns="http://www.w3.org/2000/svg" xmlns:xlink="http://www.w3.org/1999/xlink" viewBox="0 0 356 268">
  <defs>
    <linearGradient id="linear-gradient" x1="0.5" x2="0.5" y2="1" gradientUnits="objectBoundingBox">
      <stop offset="0" stop-color="#f25a24"/>
      <stop offset="1" stop-color="#f25a24"/>
    </linearGradient>
  </defs>
  <g id="Dots_Pattern" data-name="Dots Pattern" transform="translate(451 3316.881) rotate(180)">
    <circle id="Ellipse_1" data-name="Ellipse 1" cx="2" cy="2" r="1.5" transform="translate(95 3048.881)" fill="url(#linear-gradient)"/>
    <circle id="Ellipse_1-2" data-name="Ellipse 1" cx="2" cy="2" r="1.5" transform="translate(139 3048.881)" fill="url(#linear-gradient)"/>
    <circle id="Ellipse_1-3" data-name="Ellipse 1" cx="2" cy="2" r="1.5" transform="translate(183 3048.881)" fill="url(#linear-gradient)"/>
    <circle id="Ellipse_1-4" data-name="Ellipse 1" cx="2" cy="2" r="1.5" transform="translate(227 3048.881)" fill="url(#linear-gradient)"/>
    <circle id="Ellipse_1-5" data-name="Ellipse 1" cx="2" cy="2" r="1.5" transform="translate(271 3048.881)" fill="url(#linear-gradient)"/>
    <circle id="Ellipse_1-6" data-name="Ellipse 1" cx="2" cy="2" r="1.5" transform="translate(315 3048.881)" fill="url(#linear-gradient)"/>
    <circle id="Ellipse_1-7" data-name="Ellipse 1" cx="2" cy="2" r="1.5" transform="translate(359 3048.881)" fill="url(#linear-gradient)"/>
    <circle id="Ellipse_1-8" data-name="Ellipse 1" cx="2" cy="2" r="1.5" transform="translate(403 3048.881)" fill="url(#linear-gradient)"/>
    <circle id="Ellipse_1-9" data-name="Ellipse 1" cx="2" cy="2" r="1.5" transform="translate(447 3048.881)" fill="url(#linear-gradient)"/>
    <circle id="Ellipse_1-10" data-name="Ellipse 1" cx="2" cy="2" r="1.5" transform="translate(95 3092.881)" fill="url(#linear-gradient)"/>
    <circle id="Ellipse_1-11" data-name="Ellipse 1" cx="2" cy="2" r="1.5" transform="translate(139 3092.881)" fill="url(#linear-gradient)"/>
    <circle id="Ellipse_1-12" data-name="Ellipse 1" cx="2" cy="2" r="1.5" transform="translate(183 3092.881)" fill="url(#linear-gradient)"/>
    <circle id="Ellipse_1-13" data-name="Ellipse 1" cx="2" cy="2" r="1.5" transform="translate(227 3092.881)" fill="url(#linear-gradient)"/>
    <circle id="Ellipse_1-14" data-name="Ellipse 1" cx="2" cy="2" r="1.5" transform="translate(271 3092.881)" fill="url(#linear-gradient)"/>
    <circle id="Ellipse_1-15" data-name="Ellipse 1" cx="2" cy="2" r="1.5" transform="translate(315 3092.881)" fill="url(#linear-gradient)"/>
    <circle id="Ellipse_1-16" data-name="Ellipse 1" cx="2" cy="2" r="1.5" transform="translate(359 3092.881)" fill="url(#linear-gradient)"/>
    <circle id="Ellipse_1-17" data-name="Ellipse 1" cx="2" cy="2" r="1.5" transform="translate(403 3092.881)" fill="url(#linear-gradient)"/>
    <circle id="Ellipse_1-18" data-name="Ellipse 1" cx="2" cy="2" r="1.5" transform="translate(447 3092.881)" fill="url(#linear-gradient)"/>
    <circle id="Ellipse_1-19" data-name="Ellipse 1" cx="2" cy="2" r="1.5" transform="translate(95 3136.881)" fill="url(#linear-gradient)"/>
    <circle id="Ellipse_1-20" data-name="Ellipse 1" cx="2" cy="2" r="1.5" transform="translate(139 3136.881)" fill="url(#linear-gradient)"/>
    <circle id="Ellipse_1-21" data-name="Ellipse 1" cx="2" cy="2" r="1.5" transform="translate(183 3136.881)" fill="url(#linear-gradient)"/>
    <circle id="Ellipse_1-22" data-name="Ellipse 1" cx="2" cy="2" r="1.5" transform="translate(227 3136.881)" fill="url(#linear-gradient)"/>
    <circle id="Ellipse_1-23" data-name="Ellipse 1" cx="2" cy="2" r="1.5" transform="translate(271 3136.881)" fill="url(#linear-gradient)"/>
    <circle id="Ellipse_1-24" data-name="Ellipse 1" cx="2" cy="2" r="1.5" transform="translate(315 3136.881)" fill="url(#linear-gradient)"/>
    <circle id="Ellipse_1-25" data-name="Ellipse 1" cx="2" cy="2" r="1.5" transform="translate(359 3136.881)" fill="url(#linear-gradient)"/>
    <circle id="Ellipse_1-26" data-name="Ellipse 1" cx="2" cy="2" r="1.5" transform="translate(403 3136.881)" fill="url(#linear-gradient)"/>
    <circle id="Ellipse_1-27" data-name="Ellipse 1" cx="2" cy="2" r="1.5" transform="translate(447 3136.881)" fill="url(#linear-gradient)"/>
    <circle id="Ellipse_1-28" data-name="Ellipse 1" cx="2" cy="2" r="1.5" transform="translate(95 3180.881)" fill="url(#linear-gradient)"/>
    <circle id="Ellipse_1-29" data-name="Ellipse 1" cx="2" cy="2" r="1.5" transform="translate(139 3180.881)" fill="url(#linear-gradient)"/>
    <circle id="Ellipse_1-30" data-name="Ellipse 1" cx="2" cy="2" r="1.5" transform="translate(183 3180.881)" fill="url(#linear-gradient)"/>
    <circle id="Ellipse_1-31" data-name="Ellipse 1" cx="2" cy="2" r="1.5" transform="translate(227 3180.881)" fill="url(#linear-gradient)"/>
    <circle id="Ellipse_1-32" data-name="Ellipse 1" cx="2" cy="2" r="1.5" transform="translate(271 3180.881)" fill="url(#linear-gradient)"/>
    <circle id="Ellipse_1-33" data-name="Ellipse 1" cx="2" cy="2" r="1.5" transform="translate(315 3180.881)" fill="url(#linear-gradient)"/>
    <circle id="Ellipse_1-34" data-name="Ellipse 1" cx="2" cy="2" r="1.5" transform="translate(359 3180.881)" fill="url(#linear-gradient)"/>
    <circle id="Ellipse_1-35" data-name="Ellipse 1" cx="2" cy="2" r="1.5" transform="translate(403 3180.881)" fill="url(#linear-gradient)"/>
    <circle id="Ellipse_1-36" data-name="Ellipse 1" cx="2" cy="2" r="1.5" transform="translate(447 3180.881)" fill="url(#linear-gradient)"/>
    <circle id="Ellipse_1-37" data-name="Ellipse 1" cx="2" cy="2" r="1.5" transform="translate(95 3224.881)" fill="url(#linear-gradient)"/>
    <circle id="Ellipse_1-38" data-name="Ellipse 1" cx="2" cy="2" r="1.5" transform="translate(139 3224.881)" fill="url(#linear-gradient)"/>
    <circle id="Ellipse_1-39" data-name="Ellipse 1" cx="2" cy="2" r="1.5" transform="translate(183 3224.881)" fill="url(#linear-gradient)"/>
    <circle id="Ellipse_1-40" data-name="Ellipse 1" cx="2" cy="2" r="1.5" transform="translate(227 3224.881)" fill="url(#linear-gradient)"/>
    <circle id="Ellipse_1-41" data-name="Ellipse 1" cx="2" cy="2" r="1.5" transform="translate(271 3224.881)" fill="url(#linear-gradient)"/>
    <circle id="Ellipse_1-42" data-name="Ellipse 1" cx="2" cy="2" r="1.5" transform="translate(315 3224.881)" fill="url(#linear-gradient)"/>
    <circle id="Ellipse_1-43" data-name="Ellipse 1" cx="2" cy="2" r="1.5" transform="translate(359 3224.881)" fill="url(#linear-gradient)"/>
    <circle id="Ellipse_1-44" data-name="Ellipse 1" cx="2" cy="2" r="1.5" transform="translate(403 3224.881)" fill="url(#linear-gradient)"/>
    <circle id="Ellipse_1-45" data-name="Ellipse 1" cx="2" cy="2" r="1.5" transform="translate(447 3224.881)" fill="url(#linear-gradient)"/>
    <circle id="Ellipse_1-46" data-name="Ellipse 1" cx="2" cy="2" r="1.5" transform="translate(95 3268.881)" fill="url(#linear-gradient)"/>
    <circle id="Ellipse_1-47" data-name="Ellipse 1" cx="2" cy="2" r="1.5" transform="translate(139 3268.881)" fill="url(#linear-gradient)"/>
    <circle id="Ellipse_1-48" data-name="Ellipse 1" cx="2" cy="2" r="1.5" transform="translate(183 3268.881)" fill="url(#linear-gradient)"/>
    <circle id="Ellipse_1-49" data-name="Ellipse 1" cx="2" cy="2" r="1.5" transform="translate(227 3268.881)" fill="url(#linear-gradient)"/>
    <circle id="Ellipse_1-50" data-name="Ellipse 1" cx="2" cy="2" r="1.5" transform="translate(271 3268.881)" fill="url(#linear-gradient)"/>
    <circle id="Ellipse_1-51" data-name="Ellipse 1" cx="2" cy="2" r="1.5" transform="translate(315 3268.881)" fill="url(#linear-gradient)"/>
    <circle id="Ellipse_1-52" data-name="Ellipse 1" cx="2" cy="2" r="1.5" transform="translate(359 3268.881)" fill="url(#linear-gradient)"/>
    <circle id="Ellipse_1-53" data-name="Ellipse 1" cx="2" cy="2" r="1.5" transform="translate(403 3268.881)" fill="url(#linear-gradient)"/>
    <circle id="Ellipse_1-54" data-name="Ellipse 1" cx="2" cy="2" r="1.5" transform="translate(447 3268.881)" fill="url(#linear-gradient)"/>
    <circle id="Ellipse_1-55" data-name="Ellipse 1" cx="2" cy="2" r="1.5" transform="translate(95 3312.881)" fill="url(#linear-gradient)"/>
    <circle id="Ellipse_1-56" data-name="Ellipse 1" cx="2" cy="2" r="1.5" transform="translate(139 3312.881)" fill="url(#linear-gradient)"/>
    <circle id="Ellipse_1-57" data-name="Ellipse 1" cx="2" cy="2" r="1.5" transform="translate(183 3312.881)" fill="url(#linear-gradient)"/>
    <circle id="Ellipse_1-58" data-name="Ellipse 1" cx="2" cy="2" r="1.5" transform="translate(227 3312.881)" fill="url(#linear-gradient)"/>
    <circle id="Ellipse_1-59" data-name="Ellipse 1" cx="2" cy="2" r="1.5" transform="translate(271 3312.881)" fill="url(#linear-gradient)"/>
    <circle id="Ellipse_1-60" data-name="Ellipse 1" cx="2" cy="2" r="1.5" transform="translate(315 3312.881)" fill="url(#linear-gradient)"/>
    <circle id="Ellipse_1-61" data-name="Ellipse 1" cx="2" cy="2" r="1.5" transform="translate(359 3312.881)" fill="url(#linear-gradient)"/>
    <circle id="Ellipse_1-62" data-name="Ellipse 1" cx="2" cy="2" r="1.5" transform="translate(403 3312.881)" fill="url(#linear-gradient)"/>
    <circle id="Ellipse_1-63" data-name="Ellipse 1" cx="2" cy="2" r="1.5" transform="translate(447 3312.881)" fill="url(#linear-gradient)"/>
  </g>
</svg>
