<svg xmlns="http://www.w3.org/2000/svg">

  <defs>

    <symbol id="home" viewBox="0 0 20 17">
      <title>Home icon</title>
      <path id="ic_home_24px" d="M10,20V14h4v6h5V12h3L12,3,2,12H5v8Z" transform="translate(-2 -3)"/>    
    </symbol>
    <symbol id="phone" viewBox="0 0 18 18">
      <title>Phone icon</title>
      <path id="ic_call_24px" d="M6.62,10.79a15.149,15.149,0,0,0,6.59,6.59l2.2-2.2a.994.994,0,0,1,1.02-.24,11.407,11.407,0,0,0,3.57.57,1,1,0,0,1,1,1V20a1,1,0,0,1-1,1A17,17,0,0,1,3,4,1,1,0,0,1,4,3H7.5a1,1,0,0,1,1,1,11.36,11.36,0,0,0,.57,3.57,1,1,0,0,1-.25,1.02Z" transform="translate(-3 -3)"/>  
    </symbol>
    <symbol id="reader" viewBox="0 0 22 17">
      <title>Reader icon</title>
      <path id="ic_chrome_reader_mode_24px" d="M13,12h7v1.5H13Zm0-2.5h7V11H13Zm0,5h7V16H13ZM21,4H3A2.006,2.006,0,0,0,1,6V19a2.006,2.006,0,0,0,2,2H21a2.006,2.006,0,0,0,2-2V6A2.006,2.006,0,0,0,21,4Zm0,15H12V6h9Z" transform="translate(-1 -4)" />  
    </symbol>
    <symbol id="info" viewBox="0 0 20 20">
      <title>Info icon</title>
      <path id="ic_info_outline_24px" d="M11,17h2V11H11ZM12,2A10,10,0,1,0,22,12,10,10,0,0,0,12,2Zm0,18a8,8,0,1,1,8-8A8.011,8.011,0,0,1,12,20ZM11,9h2V7H11Z" transform="translate(-2 -2)"/> 
    </symbol>
    <symbol id="shopping" viewBox="0 0 22 18.98">
      <title>Shoping basket icon</title>
      <path id="ic_shopping_basket_24px" d="M17.21,9,12.83,2.44A.993.993,0,0,0,12,2.02a.977.977,0,0,0-.83.43L6.79,9H2a1,1,0,0,0-1,1,.842.842,0,0,0,.04.27l2.54,9.27A1.989,1.989,0,0,0,5.5,21h13a2.01,2.01,0,0,0,1.93-1.46l2.54-9.27L23,10a1,1,0,0,0-1-1ZM9,9l3-4.4L15,9Zm3,8a2,2,0,1,1,2-2A2.006,2.006,0,0,1,12,17Z" transform="translate(-1 -2.02)"/>  
    </symbol>
    <symbol id="facebook" viewBox="0 0 13.44 24.859">
      <title>Facebook icon</title>
        <path id="Path_1121" data-name="Path 1121" d="M952.933,264.006,949.71,264c-3.622,0-5.963,2.4-5.963,6.118v2.821h-3.241a.507.507,0,0,0-.506.508v4.086a.506.506,0,0,0,.506.507h3.241v10.312a.508.508,0,0,0,.508.508h4.228a.508.508,0,0,0,.508-.508V278.039h3.789a.507.507,0,0,0,.508-.507v-4.086a.508.508,0,0,0-.508-.508h-3.79v-2.391c0-1.149.273-1.733,1.77-1.733h2.172a.508.508,0,0,0,.507-.506v-3.8a.507.507,0,0,0-.507-.506Zm0,0" transform="translate(-940 -264)"/>
    </symbol>
    <symbol id="instagram" viewBox="0 0 24.859 24.859">
      <title>Instagram icon</title>
      <g>
        <path id="Path_1123" data-name="Path 1123" d="M914,237H902.86a6.868,6.868,0,0,0-6.86,6.86V255a6.868,6.868,0,0,0,6.86,6.86H914a6.868,6.868,0,0,0,6.86-6.86V243.86A6.868,6.868,0,0,0,914,237Zm4.655,18A4.66,4.66,0,0,1,914,259.654H902.86A4.66,4.66,0,0,1,898.206,255V243.86a4.66,4.66,0,0,1,4.655-4.655H914a4.66,4.66,0,0,1,4.655,4.655Zm0,0" transform="translate(-896 -237)"/>
        <path id="Path_1124" data-name="Path 1124" d="M931.607,267.727a4.881,4.881,0,1,0,4.881,4.88,4.886,4.886,0,0,0-4.881-4.88Zm0,8.081a3.2,3.2,0,1,1,3.2-3.2,3.2,3.2,0,0,1-3.2,3.2Zm0,0" transform="translate(-919.178 -260.178)"/>
        <path id="Path_1125" data-name="Path 1125" d="M987.218,258.188a2.025,2.025,0,1,0,1.434.593,2.037,2.037,0,0,0-1.434-.593Zm0,0" transform="translate(-968.367 -254.191)"/>
      </g>
    </symbol>
    <symbol id="chevron" viewBox="0 0 14.805 10.514">
      <title>Up chevron icon</title>
      <path id="Path_1636" data-name="Path 1636" d="M-11643.333-23150.424l6.62-8.287,6.622,8.287" transform="translate(11644.114 23160.313)" fill="none" stroke="#707070" stroke-width="2"/>
    </symbol>
    <symbol id="twitter" viewBox="0 0 30.596 24.859">
      <title>Twitter icon</title>
      <path id="Path_1122" data-name="Path 1122" d="M30.6,66.943a13.077,13.077,0,0,1-3.614.991,6.237,6.237,0,0,0,2.759-3.467,12.535,12.535,0,0,1-3.977,1.518,6.272,6.272,0,0,0-10.85,4.289,6.459,6.459,0,0,0,.145,1.43A17.754,17.754,0,0,1,2.13,65.144a6.274,6.274,0,0,0,1.928,8.383,6.194,6.194,0,0,1-2.834-.773v.069a6.3,6.3,0,0,0,5.025,6.163,6.26,6.26,0,0,1-1.645.207,5.545,5.545,0,0,1-1.188-.107,6.332,6.332,0,0,0,5.861,4.37A12.6,12.6,0,0,1,1.5,86.13,11.745,11.745,0,0,1,0,86.044a17.659,17.659,0,0,0,9.622,2.815c11.542,0,17.853-9.561,17.853-17.849,0-.277-.01-.545-.023-.811A12.513,12.513,0,0,0,30.6,66.943Z" transform="translate(0 -64)"/>
    </symbol>
    <symbol id="linkedin" viewBox="0 0 28.961 28.961">
      <title>Linkedin icon</title>
      <path id="linkedin-in" d="M6.483,28.971h-6V9.635h6ZM3.477,7a3.494,3.494,0,1,1,3.477-3.51A3.507,3.507,0,0,1,3.477,7ZM28.955,28.971H22.963V19.558c0-2.243-.045-5.12-3.122-5.12-3.122,0-3.6,2.437-3.6,4.958v9.574h-6V9.635H16v2.638h.084A6.309,6.309,0,0,1,21.768,9.15c6.077,0,7.194,4,7.194,9.2V28.971Z" transform="translate(0 -0.01)" />
    </symbol>
    <symbol id="scroll" viewBox="0 0 26 66.655">
      <title>Scroll Down icon</title>
      <g id="Group_1129" data-name="Group 1129" transform="translate(-1652 -811)">
        <g id="Rectangle_10" data-name="Rectangle 10" transform="translate(1652 811)" fill="none" stroke="#fff" stroke-width="2">
          <rect width="26" height="42" rx="13" stroke="none"/>
          <rect x="1" y="1" width="24" height="40" rx="12" fill="none"/>
        </g>
        <rect id="Rectangle_11" data-name="Rectangle 11" width="4" height="10" rx="2" transform="translate(1663 818)" fill="#fff"/>
        <path id="Path_1" data-name="Path 1" d="M1605.571,788.571l10.084,10.084,10.084-10.084" transform="translate(49 68)" fill="none" stroke="#fff" stroke-linecap="round" stroke-linejoin="round" stroke-width="2"/>
        <path id="Path_2" data-name="Path 2" d="M1605.571,788.571l10.084,10.084,10.084-10.084" transform="translate(49 78)" fill="none" stroke="#fff" stroke-linecap="round" stroke-linejoin="round" stroke-width="2"/>
      </g>
    </symbol>

  </defs>

</svg>